<?xml version="1.0" encoding="utf-8"?>
<!-- Generator: Adobe Illustrator 16.0.0, SVG Export Plug-In . SVG Version: 6.00 Build 0)  -->
<!DOCTYPE svg PUBLIC "-//W3C//DTD SVG 1.1//EN" "http://www.w3.org/Graphics/SVG/1.1/DTD/svg11.dtd" [
	<!ENTITY ns_extend "http://ns.adobe.com/Extensibility/1.0/">
	<!ENTITY ns_ai "http://ns.adobe.com/AdobeIllustrator/10.0/">
	<!ENTITY ns_graphs "http://ns.adobe.com/Graphs/1.0/">
	<!ENTITY ns_vars "http://ns.adobe.com/Variables/1.0/">
	<!ENTITY ns_imrep "http://ns.adobe.com/ImageReplacement/1.0/">
	<!ENTITY ns_sfw "http://ns.adobe.com/SaveForWeb/1.0/">
	<!ENTITY ns_custom "http://ns.adobe.com/GenericCustomNamespace/1.0/">
	<!ENTITY ns_adobe_xpath "http://ns.adobe.com/XPath/1.0/">
]>
<svg version="1.1" id="Capa_1" xmlns:x="&ns_extend;" xmlns:i="&ns_ai;" xmlns:graph="&ns_graphs;"
	 xmlns="http://www.w3.org/2000/svg" xmlns:xlink="http://www.w3.org/1999/xlink" x="0px" y="0px" width="30px" height="40px"
	 viewBox="0 0 30 40" enable-background="new 0 0 30 40" xml:space="preserve">
<metadata>
	<sfw  xmlns="&ns_sfw;">
		<slices></slices>
		<sliceSourceBounds  height="37.505" width="25.43" y="-39.374" x="2.122" bottomLeftOrigin="true"></sliceSourceBounds>
	</sfw>
</metadata>
<path fill="#203A8F" d="M27.552,14.584c0-7.022-5.693-12.716-12.714-12.716c-7.022,0-12.716,5.694-12.716,12.716
	c0,1.91,0.453,3.705,1.207,5.329H3.296c0.511,0.587,9.9,19.461,11.542,19.461c2.038,0,11.54-19.461,11.54-19.461h-0.032
	C27.1,18.29,27.552,16.497,27.552,14.584z M14.838,9.542c2.786,0,5.044,2.258,5.044,5.04c0,2.786-2.258,5.045-5.044,5.045
	c-2.782,0-5.041-2.259-5.041-5.045C9.797,11.8,12.056,9.542,14.838,9.542z"/>
</svg>
