<?xml version="1.0" encoding="UTF-8" standalone="no"?>
<svg width="17px" height="25px" viewBox="0 0 17 25" version="1.1" xmlns="http://www.w3.org/2000/svg" xmlns:xlink="http://www.w3.org/1999/xlink" xmlns:sketch="http://www.bohemiancoding.com/sketch/ns">
    <!-- Generator: Sketch 3.3.2 (12043) - http://www.bohemiancoding.com/sketch -->
    <title>icon-location</title>
    <desc>Created with Sketch.</desc>
    <defs></defs>
    <g id="Page-1" stroke="none" stroke-width="1" fill="none" fill-rule="evenodd" sketch:type="MSPage">
        <g id="icon-location" sketch:type="MSLayerGroup" transform="translate(0.000000, -0.500000)" fill="#203A8F">
            <path d="M16.7070769,8.88184615 C16.7070769,4.29053846 12.9847308,0.567538462 8.39407692,0.567538462 C3.80276923,0.567538462 0.0797692308,4.29053846 0.0797692308,8.88184615 C0.0797692308,10.1306923 0.375961538,11.3043462 0.868961538,12.3661923 L0.847384615,12.3661923 C1.1815,12.75 7.32046154,25.0906923 8.39407692,25.0906923 C9.72661538,25.0906923 15.9394615,12.3661923 15.9394615,12.3661923 L15.9185385,12.3661923 C16.4115385,11.305 16.7070769,10.1326538 16.7070769,8.88184615 L16.7070769,8.88184615 Z M8.39407692,5.58515385 C10.2156923,5.58515385 11.6920769,7.06153846 11.6920769,8.88053846 C11.6920769,10.7021538 10.2156923,12.1791923 8.39407692,12.1791923 C6.57507692,12.1791923 5.09803846,10.7021538 5.09803846,8.88053846 C5.09803846,7.06153846 6.57507692,5.58515385 8.39407692,5.58515385 L8.39407692,5.58515385 Z" id="Shape" sketch:type="MSShapeGroup"></path>
        </g>
    </g>
</svg>