<?xml version="1.0" encoding="UTF-8" standalone="no"?>
<svg width="129px" height="56px" viewBox="0 0 129 56" version="1.1" xmlns="http://www.w3.org/2000/svg" xmlns:xlink="http://www.w3.org/1999/xlink" xmlns:sketch="http://www.bohemiancoding.com/sketch/ns">
    <!-- Generator: Sketch 3.3.3 (12072) - http://www.bohemiancoding.com/sketch -->
    <title>logonmycia-small</title>
    <desc>Created with Sketch.</desc>
    <defs></defs>
    <g id="Page-1" stroke="none" stroke-width="1" fill="none" fill-rule="evenodd" sketch:type="MSPage">
        <g id="logonmycia-small" sketch:type="MSLayerGroup" fill="#151D37">
            <g id="Group" transform="translate(35.000000, 0.000000)" sketch:type="MSShapeGroup">
                <g transform="translate(0.000000, 12.000000)" id="Shape">
                    <path d="M4.243,16.521 C4.295,18.623 4.552,19.287 5.243,19.492 C5.729,19.621 6.292,19.644 6.523,19.644 C6.651,19.644 6.727,19.697 6.727,19.798 C6.727,19.952 6.575,20.003 6.268,20.003 C4.807,20.003 3.785,19.927 3.553,19.927 C3.324,19.927 2.246,20.003 1.096,20.003 C0.84,20.003 0.685,19.978 0.685,19.798 C0.685,19.696 0.762,19.644 0.891,19.644 C1.096,19.644 1.556,19.621 1.941,19.492 C2.581,19.314 2.71,18.572 2.71,16.241 L2.734,1.571 C2.734,0.571 2.811,0.291 3.016,0.291 C3.221,0.291 3.656,0.854 3.912,1.11 C4.296,1.545 8.111,5.667 12.054,9.892 C14.588,12.605 17.379,15.729 18.198,16.573 L17.917,3.567 C17.891,1.902 17.712,1.339 16.917,1.134 C16.456,1.032 15.868,1.006 15.663,1.006 C15.482,1.006 15.458,0.93 15.458,0.827 C15.458,0.675 15.663,0.648 15.97,0.648 C17.122,0.648 18.352,0.725 18.633,0.725 C18.915,0.725 19.759,0.648 20.81,0.648 C21.09,0.648 21.271,0.674 21.271,0.827 C21.271,0.931 21.167,1.006 20.989,1.006 C20.861,1.006 20.682,1.006 20.375,1.083 C19.529,1.262 19.428,1.825 19.428,3.361 L19.375,18.367 C19.375,20.055 19.324,20.183 19.146,20.183 C18.94,20.183 18.634,19.902 17.278,18.544 C16.996,18.288 13.309,14.524 10.593,11.606 C7.624,8.405 4.731,5.18 3.912,4.257 L4.243,16.521 L4.243,16.521 Z"></path>
                    <path d="M55.168,16.702 C55.272,17.623 55.45,19.056 56.552,19.416 C57.294,19.645 57.959,19.645 58.217,19.645 C58.343,19.645 58.422,19.672 58.422,19.776 C58.422,19.928 58.191,20.005 57.883,20.005 C57.321,20.005 54.554,19.929 53.608,19.851 C53.018,19.8 52.89,19.724 52.89,19.595 C52.89,19.493 52.943,19.441 53.069,19.417 C53.199,19.39 53.223,18.954 53.173,18.493 L51.944,5.283 L51.867,5.283 L45.595,18.597 C45.057,19.724 44.982,19.954 44.751,19.954 C44.57,19.954 44.442,19.698 43.957,18.776 C43.29,17.522 41.089,13.091 40.959,12.837 C40.731,12.376 37.861,6.23 37.581,5.539 L37.479,5.539 L36.455,17.419 C36.429,17.829 36.429,18.29 36.429,18.726 C36.429,19.111 36.711,19.441 37.096,19.519 C37.531,19.623 37.914,19.646 38.069,19.646 C38.171,19.646 38.273,19.699 38.273,19.777 C38.273,19.955 38.12,20.006 37.811,20.006 C36.864,20.006 35.634,19.93 35.429,19.93 C35.2,19.93 33.972,20.006 33.281,20.006 C33.025,20.006 32.844,19.955 32.844,19.777 C32.844,19.699 32.972,19.646 33.1,19.646 C33.305,19.646 33.486,19.646 33.871,19.572 C34.714,19.418 34.79,18.42 34.893,17.445 L36.736,0.751 C36.762,0.47 36.864,0.292 37.018,0.292 C37.171,0.292 37.275,0.394 37.401,0.676 L45.238,16.779 L52.764,0.7 C52.868,0.47 52.969,0.291 53.148,0.291 C53.327,0.291 53.404,0.495 53.455,0.982 L55.168,16.702 L55.168,16.702 Z"></path>
                </g>
                <path d="M27.239,41.15 L27.239,0.928 L27.944,0.928 L27.944,41.15 L27.239,41.15 L27.239,41.15 Z" id="Shape"></path>
            </g>
            <g id="Group" transform="translate(0.000000, 46.000000)" sketch:type="MSShapeGroup">
                <path d="M2.109,7.709 C2.13,8.586 2.237,8.863 2.525,8.947 C2.729,9 2.964,9.012 3.059,9.012 C3.111,9.012 3.145,9.032 3.145,9.078 C3.145,9.14 3.08,9.162 2.952,9.162 C2.345,9.162 1.917,9.131 1.822,9.131 C1.726,9.131 1.279,9.162 0.798,9.162 C0.691,9.162 0.628,9.15 0.628,9.078 C0.628,9.031 0.66,9.012 0.712,9.012 C0.798,9.012 0.991,9 1.15,8.948 C1.417,8.874 1.469,8.565 1.469,7.594 L1.48,1.483 C1.48,1.067 1.511,0.95 1.597,0.95 C1.683,0.95 1.864,1.184 1.971,1.29 C2.13,1.472 3.72,3.188 5.363,4.948 C6.419,6.079 7.582,7.38 7.922,7.731 L7.804,2.313 C7.794,1.622 7.72,1.385 7.388,1.301 C7.197,1.258 6.951,1.246 6.865,1.246 C6.791,1.246 6.779,1.215 6.779,1.174 C6.779,1.108 6.865,1.098 6.993,1.098 C7.474,1.098 7.986,1.129 8.103,1.129 C8.219,1.129 8.571,1.098 9.01,1.098 C9.126,1.098 9.201,1.108 9.201,1.174 C9.201,1.215 9.159,1.246 9.083,1.246 C9.031,1.246 8.955,1.246 8.827,1.279 C8.474,1.353 8.432,1.588 8.432,2.228 L8.411,8.478 C8.411,9.183 8.39,9.234 8.314,9.234 C8.228,9.234 8.102,9.119 7.535,8.554 C7.417,8.445 5.883,6.876 4.751,5.663 C3.515,4.329 2.308,2.983 1.968,2.602 L2.109,7.709 L2.109,7.709 Z" id="Shape"></path>
                <path d="M12.795,6.527 C12.795,7.4 12.795,8.117 12.839,8.488 C12.87,8.754 12.902,8.926 13.179,8.968 C13.32,8.989 13.521,9.011 13.607,9.011 C13.66,9.011 13.681,9.056 13.681,9.087 C13.681,9.13 13.639,9.161 13.532,9.161 C13.01,9.161 12.401,9.13 12.359,9.13 C12.307,9.13 11.719,9.161 11.431,9.161 C11.334,9.161 11.282,9.14 11.282,9.087 C11.282,9.056 11.303,9.011 11.356,9.011 C11.442,9.011 11.559,8.99 11.645,8.968 C11.826,8.925 11.857,8.753 11.891,8.488 C11.933,8.117 11.944,7.4 11.944,6.527 L11.944,4.925 C11.944,3.517 11.944,3.263 11.923,2.976 C11.902,2.665 11.826,2.527 11.625,2.484 C11.518,2.463 11.4,2.451 11.335,2.451 C11.293,2.451 11.262,2.41 11.262,2.379 C11.262,2.324 11.304,2.303 11.411,2.303 C11.72,2.303 12.307,2.324 12.36,2.324 C12.402,2.324 13.011,2.303 13.298,2.303 C13.405,2.303 13.447,2.324 13.447,2.379 C13.447,2.41 13.405,2.451 13.374,2.451 C13.309,2.451 13.246,2.451 13.139,2.474 C12.883,2.527 12.83,2.654 12.809,2.976 C12.797,3.263 12.797,3.517 12.797,4.925 L12.797,6.527 L12.795,6.527 Z" id="Shape"></path>
                <path d="M16.124,2.977 C16.101,2.666 16.048,2.518 15.74,2.475 C15.664,2.463 15.505,2.452 15.419,2.452 C15.387,2.452 15.345,2.411 15.345,2.38 C15.345,2.325 15.387,2.304 15.494,2.304 C15.92,2.304 16.529,2.325 16.581,2.325 C16.644,2.325 18.607,2.337 18.821,2.325 C19.002,2.313 19.174,2.282 19.247,2.272 C19.291,2.26 19.333,2.229 19.375,2.229 C19.409,2.229 19.419,2.272 19.419,2.313 C19.419,2.379 19.365,2.485 19.344,2.741 C19.333,2.827 19.312,3.231 19.291,3.339 C19.28,3.38 19.247,3.435 19.205,3.435 C19.152,3.435 19.13,3.392 19.13,3.318 C19.13,3.254 19.119,3.103 19.077,2.998 C19.014,2.848 18.917,2.785 18.405,2.721 C18.245,2.7 17.156,2.69 17.051,2.69 C17.007,2.69 16.997,2.721 16.997,2.786 L16.997,5.251 C16.997,5.313 16.997,5.345 17.051,5.345 C17.167,5.345 18.405,5.345 18.617,5.324 C18.841,5.304 18.98,5.293 19.076,5.197 C19.139,5.135 19.183,5.08 19.215,5.08 C19.246,5.08 19.267,5.101 19.267,5.154 C19.267,5.207 19.215,5.357 19.193,5.656 C19.172,5.836 19.151,6.179 19.151,6.244 C19.151,6.316 19.129,6.412 19.065,6.412 C19.023,6.412 19,6.381 19,6.328 C19,6.244 19,6.148 18.958,6.029 C18.926,5.902 18.84,5.795 18.479,5.752 C18.223,5.721 17.22,5.711 17.06,5.711 C17.006,5.711 16.996,5.742 16.996,5.773 L16.996,6.531 C16.996,6.84 16.985,7.896 16.996,8.078 C17.017,8.685 17.189,8.801 18.117,8.801 C18.363,8.801 18.81,8.801 19.055,8.705 C19.301,8.601 19.429,8.439 19.481,8.078 C19.502,7.969 19.523,7.937 19.577,7.937 C19.63,7.937 19.64,8.015 19.64,8.078 C19.64,8.141 19.567,8.758 19.512,8.951 C19.449,9.187 19.352,9.187 18.99,9.187 C18.286,9.187 17.743,9.166 17.359,9.154 C16.964,9.134 16.719,9.134 16.58,9.134 C16.559,9.134 16.376,9.134 16.175,9.144 C15.994,9.154 15.78,9.165 15.632,9.165 C15.535,9.165 15.483,9.144 15.483,9.091 C15.483,9.06 15.504,9.015 15.557,9.015 C15.643,9.015 15.761,8.982 15.845,8.972 C16.028,8.941 16.049,8.757 16.091,8.492 C16.146,8.121 16.146,7.404 16.146,6.531 L16.146,4.926 C16.145,3.518 16.145,3.264 16.124,2.977 Z" id="Shape"></path>
                <path d="M24.336,6.527 C24.336,7.4 24.336,8.117 24.378,8.488 C24.41,8.754 24.454,8.926 24.741,8.968 C24.869,8.989 25.081,9.011 25.167,9.011 C25.232,9.011 25.242,9.056 25.242,9.087 C25.242,9.13 25.198,9.161 25.091,9.161 C24.579,9.161 23.983,9.13 23.93,9.13 C23.886,9.13 23.236,9.161 22.958,9.161 C22.851,9.161 22.809,9.14 22.809,9.087 C22.809,9.056 22.83,9.025 22.884,9.025 C22.968,9.025 23.075,9 23.161,8.978 C23.352,8.937 23.407,8.753 23.438,8.488 C23.48,8.117 23.48,7.4 23.48,6.527 L23.48,2.718 L22.126,2.739 C21.538,2.749 21.315,2.813 21.177,3.028 C21.07,3.186 21.06,3.251 21.028,3.315 C21.005,3.389 20.973,3.401 20.931,3.401 C20.91,3.401 20.866,3.378 20.866,3.325 C20.866,3.229 21.059,2.419 21.07,2.345 C21.091,2.292 21.133,2.173 21.167,2.173 C21.23,2.173 21.327,2.249 21.583,2.28 C21.85,2.311 22.211,2.323 22.318,2.323 L25.86,2.323 C26.17,2.323 26.382,2.302 26.531,2.28 C26.67,2.259 26.756,2.239 26.798,2.239 C26.842,2.239 26.842,2.292 26.842,2.344 C26.842,2.621 26.809,3.272 26.809,3.377 C26.809,3.453 26.767,3.496 26.725,3.496 C26.683,3.496 26.66,3.463 26.649,3.336 L26.639,3.238 C26.607,2.963 26.404,2.759 25.509,2.738 L24.336,2.717 L24.336,6.527 L24.336,6.527 Z" id="Shape"></path>
                <path d="M31.469,2.174 C33.581,2.174 35.182,3.465 35.182,5.578 C35.182,7.603 33.677,9.277 31.416,9.277 C28.844,9.277 27.747,7.347 27.747,5.716 C27.748,4.254 28.879,2.174 31.469,2.174 L31.469,2.174 Z M31.684,8.906 C32.526,8.906 34.222,8.457 34.222,5.832 C34.222,3.658 32.9,2.518 31.418,2.518 C29.85,2.518 28.718,3.498 28.718,5.471 C28.717,7.584 29.987,8.906 31.684,8.906 L31.684,8.906 Z" id="Shape"></path>
                <path d="M40.523,5.002 C40.523,4.756 40.695,4.414 41.11,4.414 C41.44,4.414 41.696,4.629 41.696,4.971 C41.696,5.311 41.463,5.588 41.1,5.588 C40.695,5.588 40.523,5.27 40.523,5.002 L40.523,5.002 Z" id="Shape"></path>
                <path d="M56.278,7.787 C56.32,8.168 56.395,8.766 56.853,8.916 C57.162,9.012 57.44,9.012 57.546,9.012 C57.6,9.012 57.632,9.026 57.632,9.067 C57.632,9.131 57.535,9.163 57.407,9.163 C57.172,9.163 56.021,9.132 55.627,9.099 C55.381,9.079 55.327,9.044 55.327,8.992 C55.327,8.949 55.349,8.928 55.402,8.918 C55.455,8.908 55.467,8.725 55.444,8.535 L54.932,3.031 L54.901,3.031 L52.287,8.578 C52.064,9.045 52.031,9.142 51.936,9.142 C51.861,9.142 51.808,9.033 51.604,8.652 C51.327,8.129 50.41,6.283 50.357,6.177 C50.261,5.984 49.066,3.425 48.949,3.138 L48.907,3.138 L48.479,8.085 C48.468,8.257 48.468,8.446 48.468,8.63 C48.468,8.79 48.586,8.927 48.745,8.96 C48.928,9.001 49.087,9.013 49.152,9.013 C49.194,9.013 49.236,9.033 49.236,9.068 C49.236,9.142 49.173,9.164 49.045,9.164 C48.65,9.164 48.138,9.133 48.052,9.133 C47.955,9.133 47.445,9.164 47.156,9.164 C47.049,9.164 46.975,9.143 46.975,9.068 C46.975,9.033 47.028,9.013 47.082,9.013 C47.166,9.013 47.241,9.013 47.401,8.98 C47.754,8.918 47.785,8.5 47.827,8.097 L48.596,1.142 C48.606,1.025 48.65,0.951 48.713,0.951 C48.778,0.951 48.82,0.992 48.873,1.109 L52.137,7.82 L55.273,1.121 C55.315,1.025 55.359,0.951 55.433,0.951 C55.508,0.951 55.54,1.037 55.561,1.238 L56.278,7.787 L56.278,7.787 Z" id="Shape"></path>
                <path d="M62.217,2.174 C64.329,2.174 65.928,3.465 65.928,5.578 C65.928,7.603 64.425,9.277 62.164,9.277 C59.593,9.277 58.495,7.347 58.495,5.716 C58.495,4.254 59.624,2.174 62.217,2.174 L62.217,2.174 Z M62.431,8.906 C63.273,8.906 64.969,8.457 64.969,5.832 C64.969,3.658 63.646,2.518 62.164,2.518 C60.596,2.518 59.465,3.498 59.465,5.471 C59.465,7.584 60.734,8.906 62.431,8.906 L62.431,8.906 Z" id="Shape"></path>
                <path d="M68.157,4.926 C68.157,3.518 68.157,3.264 68.136,2.977 C68.113,2.666 68.06,2.518 67.751,2.475 C67.676,2.463 67.517,2.452 67.431,2.452 C67.399,2.452 67.357,2.411 67.357,2.38 C67.357,2.325 67.399,2.304 67.506,2.304 C67.932,2.304 68.562,2.325 68.614,2.325 C68.711,2.325 69.5,2.304 69.787,2.304 C70.386,2.304 71.047,2.359 71.536,2.699 C71.771,2.871 72.188,3.308 72.188,3.937 C72.188,4.609 71.91,5.259 71.036,6.005 C71.805,6.966 72.455,7.788 72.997,8.353 C73.499,8.865 73.809,8.949 74.045,8.98 C74.226,9.013 74.321,9.013 74.374,9.013 C74.429,9.013 74.46,9.058 74.46,9.089 C74.46,9.142 74.406,9.163 74.235,9.163 L73.65,9.163 C73.117,9.163 72.882,9.11 72.647,8.979 C72.242,8.766 71.9,8.331 71.367,7.647 C70.972,7.155 70.556,6.569 70.353,6.325 C70.311,6.282 70.29,6.272 70.225,6.272 L69.032,6.251 C68.988,6.251 68.968,6.272 68.968,6.325 L68.968,6.538 C68.968,7.413 68.968,8.118 69.01,8.489 C69.043,8.755 69.096,8.927 69.384,8.969 C69.512,8.99 69.715,9.012 69.799,9.012 C69.864,9.012 69.874,9.057 69.874,9.088 C69.874,9.131 69.831,9.162 69.726,9.162 C69.213,9.162 68.616,9.131 68.574,9.131 C68.563,9.131 67.933,9.162 67.646,9.162 C67.549,9.162 67.497,9.141 67.497,9.088 C67.497,9.057 67.518,9.012 67.57,9.012 C67.656,9.012 67.774,8.991 67.86,8.969 C68.041,8.926 68.061,8.754 68.105,8.489 C68.158,8.118 68.158,7.401 68.158,6.528 L68.158,4.926 L68.157,4.926 Z M68.968,5.695 C68.968,5.748 68.989,5.779 69.032,5.81 C69.171,5.884 69.65,5.951 70.065,5.951 C70.29,5.951 70.545,5.941 70.77,5.791 C71.089,5.578 71.335,5.098 71.335,4.404 C71.335,3.273 70.716,2.623 69.714,2.623 C69.435,2.623 69.137,2.654 69.042,2.676 C68.998,2.697 68.967,2.731 68.967,2.783 L68.967,5.695 L68.968,5.695 Z" id="Shape"></path>
                <path d="M77.073,2.484 C77.19,2.185 77.232,2.132 77.297,2.132 C77.392,2.132 77.426,2.259 77.521,2.462 C77.693,2.845 79.196,6.589 79.773,7.964 C80.113,8.778 80.369,8.894 80.573,8.958 C80.712,8.999 80.848,9.011 80.946,9.011 C80.999,9.011 81.062,9.031 81.062,9.087 C81.062,9.14 80.955,9.161 80.848,9.161 C80.711,9.161 80.016,9.161 79.368,9.14 C79.185,9.13 79.036,9.13 79.036,9.078 C79.036,9.031 79.057,9.031 79.099,9.012 C79.154,8.991 79.248,8.916 79.185,8.766 L78.343,6.69 C78.321,6.643 78.31,6.633 78.257,6.633 L76.093,6.633 C76.049,6.633 76.017,6.654 75.996,6.709 L75.463,8.158 C75.377,8.383 75.324,8.607 75.324,8.765 C75.324,8.947 75.483,9.011 75.643,9.011 L75.729,9.011 C75.802,9.011 75.826,9.042 75.826,9.087 C75.826,9.14 75.771,9.161 75.685,9.161 C75.462,9.161 74.95,9.13 74.843,9.13 C74.746,9.13 74.278,9.161 73.894,9.161 C73.777,9.161 73.713,9.14 73.713,9.087 C73.713,9.042 73.755,9.011 73.797,9.011 C73.86,9.011 74.001,8.999 74.074,8.99 C74.501,8.937 74.682,8.617 74.863,8.158 L77.073,2.484 L77.073,2.484 Z M78.118,6.26 C78.16,6.26 78.16,6.24 78.149,6.198 L77.221,3.712 C77.168,3.573 77.115,3.573 77.062,3.712 L76.187,6.198 C76.176,6.241 76.187,6.26 76.218,6.26 L78.118,6.26 L78.118,6.26 Z M78.949,0.873 C79.004,0.969 78.949,1.002 78.907,1.002 C78.876,1.002 78.768,0.981 78.588,1.002 C78.066,1.055 77.318,1.301 76.966,1.451 C76.893,1.482 76.827,1.502 76.807,1.502 C76.786,1.502 76.752,1.482 76.752,1.44 C76.752,1.409 76.774,1.385 76.827,1.354 C77.211,1.088 78.202,0.491 78.277,0.448 C78.458,0.341 78.523,0.309 78.576,0.309 C78.607,0.309 78.63,0.33 78.682,0.405 C78.759,0.51 78.834,0.66 78.949,0.873 L78.949,0.873 Z" id="Shape"></path>
                <path d="M82.959,7.924 C82.98,8.67 83.066,8.895 83.322,8.959 C83.492,9 83.706,9.012 83.792,9.012 C83.834,9.012 83.866,9.043 83.866,9.088 C83.866,9.141 83.803,9.162 83.696,9.162 C83.163,9.162 82.789,9.131 82.705,9.131 C82.619,9.131 82.225,9.162 81.796,9.162 C81.701,9.162 81.648,9.15 81.648,9.088 C81.648,9.043 81.681,9.012 81.723,9.012 C81.796,9.012 81.968,9 82.107,8.959 C82.342,8.895 82.374,8.65 82.374,7.828 L82.374,2.635 C82.374,2.272 82.427,2.174 82.502,2.174 C82.609,2.174 82.769,2.358 82.865,2.451 C83.014,2.603 84.379,4.051 85.83,5.545 C86.758,6.506 87.761,7.584 88.049,7.881 L87.952,3.338 C87.941,2.75 87.889,2.549 87.599,2.496 C87.429,2.463 87.216,2.451 87.141,2.451 C87.078,2.451 87.066,2.398 87.066,2.367 C87.066,2.312 87.141,2.303 87.249,2.303 C87.675,2.303 88.124,2.324 88.229,2.324 C88.335,2.324 88.646,2.303 89.03,2.303 C89.125,2.303 89.201,2.313 89.201,2.367 C89.201,2.398 89.159,2.451 89.094,2.451 C89.052,2.451 88.977,2.451 88.869,2.474 C88.56,2.536 88.539,2.718 88.539,3.263 L88.518,8.575 C88.518,9.171 88.507,9.223 88.443,9.223 C88.346,9.223 88.252,9.149 87.729,8.668 C87.632,8.584 86.278,7.252 85.286,6.217 C84.198,5.074 83.142,3.965 82.854,3.645 L82.959,7.924 L82.959,7.924 Z" id="Shape"></path>
                <path d="M94.328,6.955 C94.328,5.707 95.128,4.873 95.96,4.383 C95.566,3.828 95.437,3.391 95.437,2.912 C95.437,2.068 96.302,0.949 97.732,0.949 C98.275,0.949 98.735,1.054 99.023,1.215 C99.151,1.289 99.162,1.354 99.162,1.483 C99.162,1.803 99.119,2.549 99.086,2.708 C99.055,2.87 99.024,2.892 98.982,2.892 C98.927,2.892 98.917,2.847 98.917,2.689 C98.917,2.412 98.853,2.058 98.586,1.781 C98.351,1.537 97.989,1.314 97.52,1.314 C96.881,1.314 96.166,1.709 96.166,2.709 C96.166,3.543 96.741,4.236 97.852,5.441 C98.215,5.834 99.525,7.062 99.868,7.349 C100.166,6.943 100.412,6.23 100.412,5.579 C100.412,5.419 100.369,5.218 100.21,5.056 C100.071,4.917 99.847,4.886 99.688,4.886 C99.623,4.886 99.56,4.865 99.56,4.81 C99.56,4.757 99.644,4.738 99.73,4.738 C99.986,4.738 100.413,4.748 101.01,4.81 C101.169,4.833 101.201,4.917 101.201,5.025 C101.201,5.886 100.615,6.966 100.145,7.543 C100.85,8.139 101.318,8.428 101.618,8.6 C101.959,8.799 102.502,9.014 102.887,9.014 C102.984,9.014 103.035,9.028 103.035,9.09 C103.035,9.133 102.949,9.164 102.854,9.164 L101.809,9.164 C101.02,9.164 100.764,9.09 99.59,8.16 C99.345,8.406 98.502,9.314 96.924,9.314 C95.053,9.312 94.328,7.881 94.328,6.955 L94.328,6.955 Z M99.31,7.955 C98.712,7.463 97.656,6.453 97.379,6.152 C97.102,5.853 96.419,5.097 96.119,4.66 C95.566,5.023 95.16,5.598 95.16,6.453 C95.16,7.787 96.099,8.744 97.293,8.744 C98.285,8.744 98.946,8.33 99.31,7.955 L99.31,7.955 Z" id="Shape"></path>
                <path d="M108.032,8.158 C106.999,7.232 106.741,6.015 106.741,5.002 C106.741,4.287 106.987,3.039 107.935,2.09 C108.576,1.451 109.547,0.949 111.189,0.949 C111.615,0.949 112.213,0.98 112.736,1.076 C113.141,1.15 113.483,1.215 113.824,1.236 C113.941,1.246 113.963,1.289 113.963,1.353 C113.963,1.439 113.931,1.568 113.91,1.951 C113.889,2.303 113.889,2.89 113.878,3.051 C113.868,3.209 113.845,3.274 113.782,3.274 C113.706,3.274 113.696,3.2 113.696,3.051 C113.696,2.635 113.525,2.197 113.249,1.963 C112.875,1.641 112.054,1.354 111.114,1.354 C109.697,1.354 109.035,1.77 108.662,2.133 C107.883,2.879 107.701,3.828 107.701,4.916 C107.701,6.955 109.27,8.822 111.553,8.822 C112.353,8.822 112.983,8.722 113.408,8.289 C113.633,8.053 113.771,7.584 113.803,7.391 C113.824,7.274 113.845,7.233 113.91,7.233 C113.963,7.233 113.985,7.307 113.985,7.391 C113.985,7.463 113.855,8.393 113.75,8.754 C113.686,8.959 113.664,8.979 113.473,9.066 C113.047,9.234 112.235,9.312 111.553,9.312 C109.953,9.312 108.874,8.916 108.032,8.158 L108.032,8.158 Z" id="Shape"></path>
                <path d="M117.417,6.527 C117.417,7.4 117.417,8.117 117.459,8.488 C117.49,8.754 117.525,8.926 117.803,8.968 C117.94,8.989 118.144,9.011 118.228,9.011 C118.284,9.011 118.305,9.056 118.305,9.087 C118.305,9.13 118.263,9.161 118.154,9.161 C117.632,9.161 117.025,9.13 116.983,9.13 C116.926,9.13 116.34,9.161 116.053,9.161 C115.957,9.161 115.903,9.14 115.903,9.087 C115.903,9.056 115.925,9.011 115.978,9.011 C116.064,9.011 116.182,8.99 116.267,8.968 C116.45,8.925 116.481,8.753 116.512,8.488 C116.554,8.117 116.565,7.4 116.565,6.527 L116.565,4.925 C116.565,3.517 116.565,3.263 116.544,2.976 C116.523,2.665 116.45,2.527 116.245,2.484 C116.139,2.463 116.022,2.451 115.958,2.451 C115.916,2.451 115.882,2.41 115.882,2.379 C115.882,2.324 115.926,2.303 116.031,2.303 C116.341,2.303 116.927,2.324 116.983,2.324 C117.025,2.324 117.631,2.303 117.92,2.303 C118.028,2.303 118.07,2.324 118.07,2.379 C118.07,2.41 118.028,2.451 117.993,2.451 C117.93,2.451 117.867,2.451 117.762,2.474 C117.502,2.527 117.45,2.654 117.429,2.976 C117.418,3.263 117.418,3.517 117.418,4.925 L117.418,6.527 L117.417,6.527 Z M118.613,0.873 C118.666,0.969 118.613,1.002 118.571,1.002 C118.536,1.002 118.43,0.981 118.248,1.002 C117.726,1.055 116.982,1.301 116.628,1.451 C116.554,1.482 116.491,1.502 116.47,1.502 C116.449,1.502 116.417,1.482 116.417,1.44 C116.417,1.409 116.435,1.385 116.491,1.354 C116.873,1.088 117.866,0.491 117.939,0.448 C118.122,0.341 118.185,0.309 118.237,0.309 C118.269,0.309 118.294,0.33 118.346,0.405 C118.42,0.51 118.494,0.66 118.613,0.873 L118.613,0.873 Z" id="Shape"></path>
                <path d="M122.409,2.484 C122.528,2.185 122.57,2.132 122.633,2.132 C122.728,2.132 122.76,2.259 122.858,2.462 C123.027,2.845 124.532,6.589 125.107,7.964 C125.451,8.778 125.707,8.894 125.907,8.958 C126.048,8.999 126.184,9.011 126.282,9.011 C126.335,9.011 126.398,9.031 126.398,9.087 C126.398,9.14 126.293,9.161 126.184,9.161 C126.047,9.161 125.352,9.161 124.704,9.14 C124.521,9.13 124.374,9.13 124.374,9.078 C124.374,9.031 124.395,9.031 124.437,9.012 C124.49,8.991 124.584,8.916 124.521,8.766 L123.679,6.69 C123.658,6.643 123.648,6.633 123.595,6.633 L121.427,6.633 C121.385,6.633 121.353,6.654 121.332,6.709 L120.799,8.158 C120.715,8.383 120.658,8.607 120.658,8.765 C120.658,8.947 120.819,9.011 120.981,9.011 L121.065,9.011 C121.138,9.011 121.16,9.042 121.16,9.087 C121.16,9.14 121.107,9.161 121.023,9.161 C120.798,9.161 120.286,9.13 120.181,9.13 C120.082,9.13 119.613,9.161 119.23,9.161 C119.115,9.161 119.047,9.14 119.047,9.087 C119.047,9.042 119.089,9.011 119.135,9.011 C119.198,9.011 119.335,8.999 119.412,8.99 C119.837,8.937 120.018,8.617 120.201,8.158 L122.409,2.484 L122.409,2.484 Z M123.454,6.26 C123.496,6.26 123.496,6.24 123.485,6.198 L122.559,3.712 C122.503,3.573 122.451,3.573 122.398,3.712 L121.524,6.198 C121.514,6.241 121.524,6.26 121.556,6.26 L123.454,6.26 L123.454,6.26 Z" id="Shape"></path>
                <path d="M126.994,8.545 C126.994,8.299 127.166,7.955 127.583,7.955 C127.913,7.955 128.169,8.168 128.169,8.51 C128.169,8.854 127.934,9.131 127.572,9.131 C127.166,9.131 126.994,8.811 126.994,8.545 L126.994,8.545 Z" id="Shape"></path>
            </g>
        </g>
    </g>
</svg>