<?xml version="1.0" encoding="utf-8"?>
<!-- Generator: Adobe Illustrator 16.0.0, SVG Export Plug-In . SVG Version: 6.00 Build 0)  -->
<!DOCTYPE svg PUBLIC "-//W3C//DTD SVG 1.1//EN" "http://www.w3.org/Graphics/SVG/1.1/DTD/svg11.dtd" [
	<!ENTITY ns_extend "http://ns.adobe.com/Extensibility/1.0/">
	<!ENTITY ns_ai "http://ns.adobe.com/AdobeIllustrator/10.0/">
	<!ENTITY ns_graphs "http://ns.adobe.com/Graphs/1.0/">
	<!ENTITY ns_vars "http://ns.adobe.com/Variables/1.0/">
	<!ENTITY ns_imrep "http://ns.adobe.com/ImageReplacement/1.0/">
	<!ENTITY ns_sfw "http://ns.adobe.com/SaveForWeb/1.0/">
	<!ENTITY ns_custom "http://ns.adobe.com/GenericCustomNamespace/1.0/">
	<!ENTITY ns_adobe_xpath "http://ns.adobe.com/XPath/1.0/">
]>
<svg version="1.1" id="Capa_1" xmlns:x="&ns_extend;" xmlns:i="&ns_ai;" xmlns:graph="&ns_graphs;"
	 xmlns="http://www.w3.org/2000/svg" xmlns:xlink="http://www.w3.org/1999/xlink" x="0px" y="0px" width="235px" height="100px"
	 viewBox="0 0 235 100" enable-background="new 0 0 235 100" xml:space="preserve">
<metadata>
	<sfw  xmlns="&ns_sfw;">
		<slices></slices>
		<sliceSourceBounds  height="87.445" width="205.083" y="-93.684" x="14.889" bottomLeftOrigin="true"></sliceSourceBounds>
	</sfw>
</metadata>
<g>
	<g>
		<path fill="#FDF6F2" d="M76.984,50.608c0.083,3.376,0.494,4.447,1.605,4.776c0.782,0.206,1.688,0.247,2.06,0.247
			c0.205,0,0.328,0.082,0.328,0.246c0,0.248-0.246,0.33-0.74,0.33c-2.348,0-3.994-0.123-4.364-0.123
			c-0.371,0-2.101,0.123-3.952,0.123c-0.412,0-0.659-0.041-0.659-0.33c0-0.164,0.124-0.246,0.329-0.246
			c0.33,0,1.07-0.041,1.688-0.247c1.029-0.288,1.235-1.481,1.235-5.229l0.041-23.59c0-1.606,0.123-2.059,0.453-2.059
			c0.329,0,1.029,0.906,1.44,1.317c0.618,0.7,6.752,7.329,13.093,14.122c4.075,4.364,8.562,9.387,9.881,10.745l-0.453-20.914
			c-0.041-2.676-0.33-3.582-1.605-3.911c-0.742-0.165-1.688-0.206-2.018-0.206c-0.289,0-0.33-0.124-0.33-0.289
			c0-0.247,0.33-0.288,0.824-0.288c1.852,0,3.828,0.124,4.281,0.124s1.812-0.124,3.5-0.124c0.452,0,0.74,0.042,0.74,0.288
			c0,0.165-0.164,0.289-0.453,0.289c-0.205,0-0.493,0-0.987,0.123c-1.358,0.288-1.523,1.194-1.523,3.664l-0.083,24.126
			c0,2.718-0.082,2.924-0.369,2.924c-0.33,0-0.824-0.453-3.006-2.636c-0.453-0.411-6.381-6.464-10.746-11.157
			c-4.775-5.146-9.428-10.333-10.745-11.815L76.984,50.608z"/>
		<path fill="#FDF6F2" d="M158.869,50.896c0.166,1.483,0.453,3.788,2.225,4.364c1.193,0.371,2.264,0.371,2.676,0.371
			c0.205,0,0.33,0.041,0.33,0.206c0,0.247-0.371,0.37-0.865,0.37c-0.906,0-5.354-0.123-6.875-0.247
			c-0.947-0.083-1.154-0.206-1.154-0.411c0-0.165,0.084-0.248,0.289-0.289c0.207-0.041,0.246-0.74,0.164-1.482l-1.977-21.243h-0.123
			l-10.086,21.409c-0.865,1.811-0.988,2.182-1.357,2.182c-0.289,0-0.496-0.412-1.277-1.895c-1.07-2.018-4.611-9.14-4.818-9.551
			c-0.369-0.741-4.98-10.622-5.434-11.734h-0.164l-1.646,19.103c-0.041,0.658-0.041,1.4-0.041,2.1c0,0.617,0.453,1.152,1.07,1.276
			c0.699,0.165,1.316,0.206,1.564,0.206c0.164,0,0.328,0.082,0.328,0.206c0,0.288-0.246,0.37-0.74,0.37
			c-1.523,0-3.5-0.123-3.83-0.123c-0.369,0-2.346,0.123-3.457,0.123c-0.412,0-0.701-0.082-0.701-0.37
			c0-0.124,0.207-0.206,0.412-0.206c0.33,0,0.619,0,1.236-0.123c1.357-0.248,1.48-1.854,1.646-3.418l2.963-26.843
			c0.043-0.453,0.207-0.741,0.455-0.741c0.246,0,0.41,0.165,0.615,0.618l12.6,25.896L155,25.165c0.166-0.37,0.33-0.659,0.617-0.659
			s0.412,0.33,0.494,1.112L158.869,50.896z"/>
	</g>
	<polygon fill="#FDF6F2" points="113.961,70.912 113.961,6.238 115.095,6.238 115.095,70.912 113.961,70.912 	"/>
</g>
<g>
	<path fill="#FDF6F2" d="M17.273,91.11c0.034,1.407,0.206,1.853,0.669,1.989c0.326,0.086,0.703,0.104,0.857,0.104
		c0.085,0,0.137,0.034,0.137,0.103c0,0.103-0.103,0.138-0.309,0.138c-0.978,0-1.664-0.052-1.818-0.052s-0.875,0.052-1.646,0.052
		c-0.171,0-0.274-0.018-0.274-0.138c0-0.068,0.052-0.103,0.137-0.103c0.137,0,0.446-0.018,0.703-0.104
		c0.429-0.119,0.515-0.617,0.515-2.178l0.017-9.828c0-0.668,0.052-0.857,0.189-0.857s0.429,0.378,0.6,0.549
		c0.257,0.292,2.813,3.053,5.454,5.883c1.698,1.818,3.567,3.911,4.116,4.477l-0.189-8.713c-0.017-1.114-0.137-1.492-0.669-1.629
		c-0.309-0.068-0.703-0.086-0.84-0.086c-0.12,0-0.137-0.051-0.137-0.119c0-0.104,0.137-0.121,0.343-0.121
		c0.772,0,1.595,0.052,1.784,0.052s0.754-0.052,1.458-0.052c0.188,0,0.309,0.018,0.309,0.121c0,0.068-0.069,0.119-0.189,0.119
		c-0.085,0-0.206,0-0.412,0.052c-0.566,0.12-0.634,0.497-0.634,1.526l-0.035,10.051c0,1.132-0.034,1.217-0.154,1.217
		c-0.137,0-0.343-0.188-1.252-1.098c-0.188-0.171-2.658-2.691-4.476-4.647c-1.99-2.144-3.928-4.305-4.477-4.922L17.273,91.11z"/>
	<path fill="#FDF6F2" d="M34.456,89.207c0,1.406,0,2.555,0.069,3.155c0.051,0.429,0.103,0.704,0.549,0.772
		c0.223,0.033,0.549,0.068,0.686,0.068c0.086,0,0.12,0.068,0.12,0.12c0,0.068-0.069,0.12-0.24,0.12c-0.84,0-1.818-0.052-1.887-0.052
		c-0.085,0-1.029,0.052-1.492,0.052c-0.154,0-0.24-0.035-0.24-0.12c0-0.052,0.034-0.12,0.12-0.12c0.138,0,0.326-0.035,0.463-0.068
		c0.292-0.068,0.343-0.344,0.395-0.772c0.068-0.601,0.085-1.749,0.085-3.155v-2.572c0-2.265,0-2.676-0.034-3.139
		c-0.034-0.498-0.154-0.721-0.48-0.789c-0.172-0.035-0.36-0.052-0.463-0.052c-0.068,0-0.12-0.069-0.12-0.12
		c0-0.086,0.069-0.12,0.24-0.12c0.498,0,1.441,0.034,1.526,0.034c0.069,0,1.046-0.034,1.509-0.034c0.171,0,0.24,0.034,0.24,0.12
		c0,0.051-0.069,0.12-0.12,0.12c-0.103,0-0.206,0-0.377,0.034c-0.412,0.086-0.497,0.291-0.531,0.807
		c-0.018,0.463-0.018,0.874-0.018,3.139V89.207z"/>
	<path fill="#FDF6F2" d="M39.841,86.635c0-2.265,0-2.676-0.034-3.139c-0.034-0.498-0.12-0.738-0.617-0.807
		c-0.12-0.018-0.377-0.034-0.515-0.034c-0.052,0-0.12-0.069-0.12-0.12c0-0.086,0.068-0.12,0.24-0.12
		c0.686,0,1.664,0.034,1.749,0.034c0.103,0,3.259,0.018,3.602,0c0.292-0.018,0.566-0.068,0.686-0.086
		c0.068-0.017,0.137-0.068,0.206-0.068c0.052,0,0.069,0.068,0.069,0.137c0,0.104-0.086,0.275-0.12,0.687
		c-0.017,0.138-0.052,0.789-0.086,0.96c-0.017,0.069-0.068,0.154-0.137,0.154c-0.085,0-0.12-0.068-0.12-0.188
		c0-0.104-0.017-0.344-0.085-0.516c-0.103-0.24-0.257-0.342-1.081-0.445c-0.257-0.034-2.007-0.052-2.178-0.052
		c-0.068,0-0.086,0.052-0.086,0.155v3.961c0,0.104,0,0.154,0.086,0.154c0.188,0,2.178,0,2.521-0.034
		c0.36-0.034,0.583-0.052,0.738-0.206c0.103-0.103,0.171-0.188,0.223-0.188c0.052,0,0.086,0.034,0.086,0.12s-0.086,0.326-0.12,0.807
		c-0.034,0.291-0.068,0.84-0.068,0.943c0,0.119-0.035,0.273-0.137,0.273c-0.069,0-0.103-0.051-0.103-0.137
		c0-0.137,0-0.291-0.069-0.48c-0.051-0.205-0.188-0.377-0.771-0.445c-0.412-0.052-2.024-0.068-2.281-0.068
		c-0.085,0-0.103,0.051-0.103,0.103v1.218c0,0.497-0.017,2.195,0,2.486c0.035,0.979,0.309,1.166,1.801,1.166
		c0.395,0,1.115,0,1.51-0.154c0.394-0.171,0.6-0.428,0.686-1.012c0.035-0.172,0.069-0.223,0.155-0.223
		c0.085,0,0.103,0.12,0.103,0.223c0,0.104-0.12,1.098-0.206,1.406c-0.103,0.378-0.257,0.378-0.84,0.378
		c-1.132,0-2.007-0.034-2.624-0.052c-0.635-0.034-1.029-0.034-1.252-0.034c-0.034,0-0.326,0-0.651,0.017
		c-0.292,0.018-0.635,0.035-0.875,0.035c-0.154,0-0.24-0.035-0.24-0.12c0-0.052,0.034-0.12,0.12-0.12
		c0.138,0,0.326-0.052,0.463-0.068c0.292-0.052,0.326-0.344,0.395-0.772c0.085-0.601,0.085-1.749,0.085-3.155V86.635z"/>
	<path fill="#FDF6F2" d="M53.012,89.207c0,1.406,0,2.555,0.069,3.155c0.051,0.429,0.12,0.704,0.583,0.772
		c0.206,0.033,0.549,0.068,0.686,0.068c0.103,0,0.12,0.068,0.12,0.12c0,0.068-0.068,0.12-0.24,0.12
		c-0.823,0-1.784-0.052-1.869-0.052c-0.069,0-1.115,0.052-1.561,0.052c-0.171,0-0.24-0.035-0.24-0.12
		c0-0.052,0.034-0.103,0.12-0.103c0.137,0,0.309-0.035,0.446-0.069c0.309-0.068,0.394-0.36,0.446-0.789
		c0.068-0.601,0.068-1.749,0.068-3.155v-6.123l-2.178,0.034c-0.943,0.017-1.304,0.12-1.527,0.463
		c-0.171,0.257-0.188,0.36-0.24,0.464c-0.035,0.119-0.086,0.137-0.154,0.137c-0.035,0-0.103-0.034-0.103-0.12
		c0-0.154,0.309-1.458,0.326-1.578c0.034-0.085,0.103-0.274,0.154-0.274c0.103,0,0.257,0.12,0.669,0.172
		c0.429,0.051,1.012,0.068,1.184,0.068h5.694c0.498,0,0.84-0.034,1.081-0.068c0.223-0.034,0.36-0.068,0.429-0.068
		c0.069,0,0.069,0.086,0.069,0.171c0,0.446-0.052,1.492-0.052,1.664c0,0.12-0.068,0.188-0.137,0.188
		c-0.068,0-0.103-0.051-0.12-0.258l-0.017-0.154c-0.051-0.445-0.377-0.771-1.818-0.806l-1.887-0.034V89.207z"/>
	<path fill="#FDF6F2" d="M64.484,82.209c3.396,0,5.968,2.076,5.968,5.471c0,3.26-2.418,5.952-6.054,5.952
		c-4.133,0-5.9-3.104-5.9-5.729C58.499,85.554,60.316,82.209,64.484,82.209z M64.827,93.031c1.355,0,4.082-0.721,4.082-4.939
		c0-3.498-2.127-5.334-4.511-5.334c-2.521,0-4.339,1.578-4.339,4.751C60.059,90.904,62.1,93.031,64.827,93.031z"/>
	<path fill="#FDF6F2" d="M79.043,86.754c0-0.395,0.274-0.943,0.943-0.943c0.531,0,0.943,0.344,0.943,0.893s-0.377,0.994-0.961,0.994
		C79.317,87.697,79.043,87.184,79.043,86.754z"/>
	<path fill="#FDF6F2" d="M104.373,91.23c0.069,0.617,0.189,1.578,0.926,1.818c0.498,0.154,0.943,0.154,1.115,0.154
		c0.086,0,0.137,0.018,0.137,0.086c0,0.103-0.154,0.154-0.36,0.154c-0.377,0-2.23-0.052-2.864-0.104
		c-0.395-0.034-0.48-0.086-0.48-0.172c0-0.068,0.034-0.102,0.12-0.119s0.103-0.309,0.068-0.617l-0.823-8.851h-0.051L97.959,92.5
		c-0.36,0.754-0.412,0.908-0.566,0.908c-0.12,0-0.206-0.171-0.531-0.789c-0.446-0.84-1.921-3.807-2.007-3.979
		c-0.154-0.309-2.075-4.425-2.264-4.888h-0.068l-0.686,7.958c-0.017,0.274-0.017,0.583-0.017,0.875c0,0.257,0.188,0.48,0.446,0.531
		c0.292,0.068,0.549,0.086,0.652,0.086c0.068,0,0.137,0.034,0.137,0.086c0,0.119-0.103,0.154-0.309,0.154
		c-0.635,0-1.458-0.052-1.595-0.052c-0.154,0-0.978,0.052-1.441,0.052c-0.171,0-0.292-0.035-0.292-0.154
		c0-0.052,0.086-0.086,0.171-0.086c0.138,0,0.257,0,0.515-0.052c0.566-0.103,0.618-0.771,0.686-1.423l1.235-11.184
		c0.017-0.188,0.086-0.309,0.189-0.309c0.103,0,0.171,0.069,0.257,0.258l5.248,10.788l5.042-10.771
		c0.069-0.154,0.138-0.275,0.257-0.275c0.12,0,0.172,0.138,0.206,0.464L104.373,91.23z"/>
	<path fill="#FDF6F2" d="M113.924,82.209c3.396,0,5.969,2.076,5.969,5.471c0,3.26-2.418,5.952-6.054,5.952
		c-4.133,0-5.9-3.104-5.9-5.729C107.938,85.554,109.756,82.209,113.924,82.209z M114.267,93.031c1.355,0,4.083-0.721,4.083-4.939
		c0-3.498-2.127-5.334-4.511-5.334c-2.521,0-4.339,1.578-4.339,4.751C109.499,90.904,111.54,93.031,114.267,93.031z"/>
	<path fill="#FDF6F2" d="M123.476,86.635c0-2.265,0-2.676-0.034-3.139c-0.034-0.498-0.12-0.738-0.617-0.807
		c-0.12-0.018-0.377-0.034-0.515-0.034c-0.052,0-0.12-0.069-0.12-0.12c0-0.086,0.068-0.12,0.24-0.12
		c0.686,0,1.697,0.034,1.783,0.034c0.154,0,1.424-0.034,1.887-0.034c0.961,0,2.023,0.086,2.812,0.635
		c0.378,0.274,1.047,0.978,1.047,1.989c0,1.08-0.446,2.127-1.853,3.327c1.235,1.544,2.281,2.864,3.155,3.773
		c0.807,0.823,1.305,0.96,1.682,1.012c0.291,0.052,0.445,0.052,0.531,0.052s0.137,0.068,0.137,0.12c0,0.085-0.085,0.12-0.359,0.12
		h-0.943c-0.857,0-1.234-0.086-1.612-0.292c-0.651-0.343-1.2-1.046-2.058-2.144c-0.635-0.789-1.304-1.732-1.63-2.127
		c-0.068-0.068-0.103-0.086-0.206-0.086l-1.92-0.034c-0.069,0-0.104,0.034-0.104,0.12v0.344c0,1.406,0,2.537,0.068,3.138
		c0.052,0.429,0.137,0.704,0.601,0.772c0.206,0.033,0.532,0.068,0.669,0.068c0.103,0,0.12,0.068,0.12,0.12
		c0,0.068-0.069,0.12-0.24,0.12c-0.823,0-1.784-0.052-1.853-0.052c-0.018,0-1.029,0.052-1.492,0.052c-0.154,0-0.24-0.035-0.24-0.12
		c0-0.052,0.035-0.12,0.12-0.12c0.138,0,0.326-0.035,0.464-0.068c0.291-0.068,0.325-0.344,0.395-0.772
		c0.085-0.601,0.085-1.749,0.085-3.155V86.635z M124.779,87.869c0,0.086,0.034,0.137,0.104,0.188
		c0.223,0.12,0.994,0.224,1.663,0.224c0.36,0,0.771-0.018,1.132-0.258c0.515-0.344,0.909-1.115,0.909-2.229
		c0-1.818-0.995-2.864-2.606-2.864c-0.447,0-0.927,0.051-1.081,0.086c-0.069,0.034-0.12,0.086-0.12,0.172V87.869z"/>
	<path fill="#FDF6F2" d="M137.812,82.707c0.188-0.48,0.257-0.566,0.359-0.566c0.154,0,0.206,0.206,0.36,0.531
		c0.274,0.617,2.692,6.638,3.619,8.85c0.549,1.305,0.96,1.492,1.286,1.596c0.223,0.068,0.445,0.086,0.601,0.086
		c0.085,0,0.188,0.034,0.188,0.12c0,0.085-0.172,0.12-0.344,0.12c-0.223,0-1.337,0-2.383-0.035
		c-0.292-0.017-0.532-0.017-0.532-0.103c0-0.068,0.034-0.068,0.103-0.103c0.086-0.035,0.24-0.154,0.138-0.395l-1.354-3.345
		c-0.035-0.068-0.052-0.085-0.138-0.085h-3.481c-0.068,0-0.12,0.033-0.154,0.119l-0.857,2.333c-0.138,0.36-0.223,0.72-0.223,0.978
		c0,0.291,0.257,0.395,0.514,0.395h0.137c0.121,0,0.155,0.051,0.155,0.12c0,0.085-0.086,0.12-0.224,0.12
		c-0.359,0-1.184-0.052-1.354-0.052c-0.154,0-0.909,0.052-1.526,0.052c-0.188,0-0.291-0.035-0.291-0.12
		c0-0.069,0.068-0.12,0.137-0.12c0.103,0,0.326-0.018,0.445-0.035c0.687-0.085,0.979-0.6,1.27-1.337L137.812,82.707z
		 M139.492,88.777c0.069,0,0.069-0.033,0.053-0.102l-1.492-3.997c-0.086-0.223-0.172-0.223-0.258,0l-1.406,3.997
		c-0.018,0.068,0,0.102,0.051,0.102H139.492z M140.83,80.117c0.086,0.154,0,0.205-0.068,0.205c-0.051,0-0.223-0.034-0.514,0
		c-0.841,0.086-2.041,0.48-2.607,0.721c-0.12,0.051-0.223,0.086-0.258,0.086c-0.033,0-0.086-0.035-0.086-0.104
		c0-0.051,0.035-0.086,0.121-0.137c0.617-0.429,2.212-1.389,2.332-1.458c0.291-0.171,0.395-0.223,0.48-0.223
		c0.051,0,0.086,0.034,0.172,0.154C140.521,79.533,140.643,79.773,140.83,80.117z"/>
	<path fill="#FDF6F2" d="M147.278,91.453c0.034,1.201,0.171,1.561,0.583,1.664c0.274,0.068,0.617,0.086,0.755,0.086
		c0.068,0,0.12,0.051,0.12,0.12c0,0.085-0.104,0.12-0.274,0.12c-0.858,0-1.458-0.052-1.595-0.052c-0.138,0-0.772,0.052-1.459,0.052
		c-0.154,0-0.239-0.018-0.239-0.12c0-0.069,0.052-0.12,0.12-0.12c0.119,0,0.395-0.018,0.617-0.086
		c0.377-0.104,0.429-0.498,0.429-1.818v-8.352c0-0.584,0.086-0.738,0.206-0.738c0.172,0,0.429,0.292,0.583,0.446
		c0.24,0.24,2.436,2.572,4.769,4.974c1.491,1.543,3.104,3.275,3.566,3.756l-0.154-7.307c-0.018-0.943-0.103-1.269-0.566-1.354
		c-0.273-0.052-0.617-0.068-0.736-0.068c-0.104,0-0.121-0.086-0.121-0.138c0-0.086,0.121-0.103,0.292-0.103
		c0.687,0,1.406,0.034,1.578,0.034c0.171,0,0.669-0.034,1.286-0.034c0.154,0,0.274,0.017,0.274,0.103
		c0,0.052-0.068,0.138-0.171,0.138c-0.069,0-0.189,0-0.361,0.034c-0.496,0.104-0.531,0.395-0.531,1.27l-0.034,8.541
		c0,0.96-0.017,1.046-0.12,1.046c-0.154,0-0.309-0.12-1.148-0.892c-0.154-0.137-2.333-2.281-3.928-3.945
		c-1.75-1.835-3.447-3.618-3.91-4.133L147.278,91.453z"/>
	<path fill="#FDF6F2" d="M165.559,89.893c0-2.006,1.287-3.344,2.624-4.133c-0.634-0.893-0.841-1.596-0.841-2.367
		c0-1.355,1.39-3.156,3.688-3.156c0.875,0,1.613,0.172,2.076,0.43c0.205,0.119,0.223,0.223,0.223,0.428
		c0,0.516-0.068,1.716-0.12,1.973c-0.052,0.258-0.103,0.292-0.171,0.292c-0.086,0-0.104-0.069-0.104-0.326
		c0-0.446-0.104-1.012-0.531-1.458c-0.378-0.395-0.961-0.754-1.715-0.754c-1.029,0-2.179,0.635-2.179,2.246
		c0,1.338,0.926,2.453,2.71,4.391c0.583,0.635,2.692,2.607,3.241,3.07c0.48-0.652,0.875-1.801,0.875-2.848
		c0-0.257-0.069-0.582-0.326-0.84c-0.223-0.223-0.583-0.274-0.841-0.274c-0.103,0-0.205-0.034-0.205-0.12s0.137-0.12,0.274-0.12
		c0.411,0,1.098,0.018,2.058,0.12c0.258,0.035,0.309,0.172,0.309,0.344c0,1.389-0.943,3.121-1.697,4.047
		c1.132,0.961,1.887,1.424,2.367,1.698c0.549,0.325,1.423,0.669,2.04,0.669c0.155,0,0.24,0.018,0.24,0.12
		c0,0.068-0.138,0.12-0.292,0.12h-1.68c-1.27,0-1.682-0.12-3.568-1.612c-0.395,0.395-1.749,1.853-4.287,1.853
		C166.725,93.684,165.559,91.385,165.559,89.893z M173.568,91.505c-0.961-0.789-2.658-2.418-3.104-2.898
		c-0.446-0.479-1.544-1.698-2.024-2.401c-0.891,0.584-1.543,1.51-1.543,2.882c0,2.144,1.51,3.688,3.43,3.688
		C171.922,92.774,172.984,92.105,173.568,91.505z"/>
	<path fill="#FDF6F2" d="M187.595,91.831c-1.663-1.492-2.075-3.447-2.075-5.077c0-1.148,0.395-3.155,1.921-4.682
		c1.029-1.029,2.59-1.836,5.231-1.836c0.686,0,1.646,0.052,2.486,0.207c0.652,0.119,1.201,0.223,1.75,0.257
		c0.188,0.017,0.223,0.085,0.223,0.188c0,0.137-0.052,0.343-0.086,0.961c-0.034,0.565-0.034,1.509-0.051,1.766
		c-0.018,0.258-0.053,0.36-0.155,0.36c-0.12,0-0.137-0.12-0.137-0.36c0-0.668-0.274-1.371-0.721-1.749
		c-0.601-0.515-1.921-0.978-3.431-0.978c-2.28,0-3.344,0.669-3.944,1.252c-1.252,1.201-1.544,2.727-1.544,4.477
		c0,3.275,2.521,6.277,6.191,6.277c1.287,0,2.299-0.154,2.984-0.857c0.361-0.378,0.584-1.133,0.635-1.441
		c0.035-0.188,0.068-0.257,0.172-0.257c0.086,0,0.12,0.12,0.12,0.257c0,0.12-0.206,1.612-0.378,2.195
		c-0.103,0.326-0.137,0.36-0.445,0.498c-0.686,0.273-1.99,0.395-3.088,0.395C190.682,93.684,188.949,93.049,187.595,91.831z"/>
	<path fill="#FDF6F2" d="M202.686,89.207c0,1.406,0,2.555,0.068,3.155c0.052,0.429,0.104,0.704,0.549,0.772
		c0.224,0.033,0.549,0.068,0.687,0.068c0.086,0,0.12,0.068,0.12,0.12c0,0.068-0.068,0.12-0.24,0.12c-0.84,0-1.818-0.052-1.887-0.052
		c-0.086,0-1.029,0.052-1.492,0.052c-0.154,0-0.24-0.035-0.24-0.12c0-0.052,0.035-0.12,0.12-0.12c0.138,0,0.326-0.035,0.464-0.068
		c0.291-0.068,0.342-0.344,0.395-0.772c0.068-0.601,0.085-1.749,0.085-3.155v-2.572c0-2.265,0-2.676-0.034-3.139
		c-0.034-0.498-0.154-0.721-0.48-0.789c-0.172-0.035-0.359-0.052-0.463-0.052c-0.068,0-0.12-0.069-0.12-0.12
		c0-0.086,0.069-0.12,0.24-0.12c0.497,0,1.44,0.034,1.526,0.034c0.068,0,1.047-0.034,1.51-0.034c0.171,0,0.24,0.034,0.24,0.12
		c0,0.051-0.069,0.12-0.121,0.12c-0.103,0-0.205,0-0.377,0.034c-0.412,0.086-0.497,0.291-0.531,0.807
		c-0.018,0.463-0.018,0.874-0.018,3.139V89.207z M204.606,80.117c0.086,0.154,0,0.205-0.068,0.205c-0.052,0-0.224-0.034-0.515,0
		c-0.84,0.086-2.041,0.48-2.607,0.721c-0.119,0.051-0.223,0.086-0.257,0.086s-0.085-0.035-0.085-0.104
		c0-0.051,0.033-0.086,0.119-0.137c0.617-0.429,2.213-1.389,2.333-1.458c0.292-0.171,0.394-0.223,0.479-0.223
		c0.052,0,0.086,0.034,0.172,0.154C204.298,79.533,204.418,79.773,204.606,80.117z"/>
	<path fill="#FDF6F2" d="M210.711,82.707c0.189-0.48,0.258-0.566,0.361-0.566c0.154,0,0.205,0.206,0.359,0.531
		c0.274,0.617,2.693,6.638,3.619,8.85c0.549,1.305,0.96,1.492,1.286,1.596c0.223,0.068,0.446,0.086,0.601,0.086
		c0.086,0,0.188,0.034,0.188,0.12c0,0.085-0.172,0.12-0.343,0.12c-0.224,0-1.338,0-2.385-0.035
		c-0.291-0.017-0.531-0.017-0.531-0.103c0-0.068,0.034-0.068,0.104-0.103c0.085-0.035,0.24-0.154,0.137-0.395l-1.355-3.345
		c-0.033-0.068-0.051-0.085-0.137-0.085h-3.481c-0.069,0-0.12,0.033-0.154,0.119l-0.858,2.333c-0.137,0.36-0.223,0.72-0.223,0.978
		c0,0.291,0.258,0.395,0.515,0.395h0.138c0.119,0,0.154,0.051,0.154,0.12c0,0.085-0.086,0.12-0.223,0.12
		c-0.361,0-1.184-0.052-1.355-0.052c-0.154,0-0.909,0.052-1.526,0.052c-0.188,0-0.292-0.035-0.292-0.12
		c0-0.069,0.068-0.12,0.138-0.12c0.103,0,0.325-0.018,0.446-0.035c0.686-0.085,0.977-0.6,1.269-1.337L210.711,82.707z
		 M212.393,88.777c0.068,0,0.068-0.033,0.051-0.102l-1.492-3.997c-0.086-0.223-0.171-0.223-0.257,0l-1.406,3.997
		c-0.017,0.068,0,0.102,0.052,0.102H212.393z"/>
	<path fill="#FDF6F2" d="M218.085,92.448c0-0.395,0.274-0.943,0.943-0.943c0.532,0,0.943,0.343,0.943,0.892s-0.377,0.995-0.96,0.995
		C218.359,93.392,218.085,92.877,218.085,92.448z"/>
</g>
</svg>
