<?xml version="1.0" encoding="utf-8"?>
<!-- Generator: Adobe Illustrator 16.0.0, SVG Export Plug-In . SVG Version: 6.00 Build 0)  -->
<!DOCTYPE svg PUBLIC "-//W3C//DTD SVG 1.1//EN" "http://www.w3.org/Graphics/SVG/1.1/DTD/svg11.dtd" [
	<!ENTITY ns_extend "http://ns.adobe.com/Extensibility/1.0/">
	<!ENTITY ns_ai "http://ns.adobe.com/AdobeIllustrator/10.0/">
	<!ENTITY ns_graphs "http://ns.adobe.com/Graphs/1.0/">
	<!ENTITY ns_vars "http://ns.adobe.com/Variables/1.0/">
	<!ENTITY ns_imrep "http://ns.adobe.com/ImageReplacement/1.0/">
	<!ENTITY ns_sfw "http://ns.adobe.com/SaveForWeb/1.0/">
	<!ENTITY ns_custom "http://ns.adobe.com/GenericCustomNamespace/1.0/">
	<!ENTITY ns_adobe_xpath "http://ns.adobe.com/XPath/1.0/">
]>
<svg version="1.1" id="Capa_1" xmlns:x="&ns_extend;" xmlns:i="&ns_ai;" xmlns:graph="&ns_graphs;"
	 xmlns="http://www.w3.org/2000/svg" xmlns:xlink="http://www.w3.org/1999/xlink" x="0px" y="0px" width="235px" height="117.292px"
	 viewBox="0 0 235 117.292" enable-background="new 0 0 235 117.292" xml:space="preserve">
<metadata>
	<sfw  xmlns="&ns_sfw;">
		<slices></slices>
		<sliceSourceBounds  width="205.082" height="105.052" y="344.42" x="202.889" bottomLeftOrigin="true"></sliceSourceBounds>
	</sfw>
</metadata>
<g>
	<path fill="#FDF6F2" d="M17.273,91.11c0.034,1.407,0.206,1.853,0.669,1.989c0.326,0.086,0.703,0.104,0.857,0.104
		c0.085,0,0.137,0.034,0.137,0.104c0,0.104-0.103,0.138-0.309,0.138c-0.978,0-1.664-0.052-1.818-0.052
		c-0.154,0-0.875,0.052-1.646,0.052c-0.171,0-0.274-0.019-0.274-0.138c0-0.068,0.052-0.104,0.137-0.104
		c0.137,0,0.446-0.018,0.703-0.104c0.429-0.119,0.515-0.617,0.515-2.178l0.017-9.828c0-0.668,0.052-0.857,0.189-0.857
		c0.137,0,0.429,0.379,0.6,0.549c0.257,0.293,2.813,3.053,5.454,5.883c1.698,1.818,3.567,3.912,4.116,4.478l-0.189-8.713
		c-0.017-1.114-0.137-1.492-0.669-1.63c-0.309-0.067-0.703-0.086-0.84-0.086c-0.12,0-0.137-0.051-0.137-0.118
		c0-0.104,0.137-0.121,0.343-0.121c0.772,0,1.595,0.052,1.784,0.052s0.754-0.052,1.458-0.052c0.188,0,0.309,0.019,0.309,0.121
		c0,0.067-0.069,0.118-0.189,0.118c-0.085,0-0.206,0-0.412,0.053c-0.566,0.12-0.634,0.497-0.634,1.525l-0.035,10.052
		c0,1.132-0.034,1.217-0.154,1.217c-0.137,0-0.343-0.188-1.252-1.099c-0.188-0.17-2.658-2.69-4.476-4.646
		c-1.99-2.145-3.928-4.305-4.477-4.922L17.273,91.11z"/>
	<path fill="#FDF6F2" d="M34.456,89.207c0,1.406,0,2.556,0.069,3.155c0.051,0.429,0.103,0.704,0.549,0.772
		c0.223,0.033,0.549,0.068,0.686,0.068c0.086,0,0.12,0.067,0.12,0.119c0,0.068-0.069,0.12-0.24,0.12
		c-0.84,0-1.818-0.052-1.887-0.052c-0.085,0-1.029,0.052-1.492,0.052c-0.154,0-0.24-0.034-0.24-0.12c0-0.052,0.034-0.119,0.12-0.119
		c0.138,0,0.326-0.035,0.463-0.068c0.292-0.068,0.343-0.344,0.395-0.772c0.068-0.601,0.085-1.749,0.085-3.155v-2.572
		c0-2.264,0-2.676-0.034-3.139c-0.034-0.498-0.154-0.721-0.48-0.789c-0.172-0.035-0.36-0.051-0.463-0.051
		c-0.068,0-0.12-0.07-0.12-0.121c0-0.086,0.069-0.119,0.24-0.119c0.498,0,1.441,0.033,1.526,0.033c0.069,0,1.046-0.033,1.509-0.033
		c0.171,0,0.24,0.033,0.24,0.119c0,0.051-0.069,0.121-0.12,0.121c-0.103,0-0.206,0-0.377,0.033
		c-0.412,0.086-0.497,0.291-0.531,0.807c-0.018,0.463-0.018,0.875-0.018,3.139V89.207z"/>
	<path fill="#FDF6F2" d="M39.841,86.634c0-2.264,0-2.676-0.034-3.139c-0.034-0.498-0.12-0.738-0.617-0.807
		c-0.12-0.018-0.377-0.033-0.515-0.033c-0.052,0-0.12-0.07-0.12-0.121c0-0.086,0.068-0.119,0.24-0.119
		c0.686,0,1.664,0.033,1.749,0.033c0.103,0,3.259,0.018,3.602,0c0.292-0.018,0.566-0.068,0.686-0.086
		c0.068-0.017,0.137-0.068,0.206-0.068c0.052,0,0.069,0.068,0.069,0.138c0,0.104-0.086,0.274-0.12,0.687
		c-0.017,0.139-0.052,0.789-0.086,0.961c-0.017,0.068-0.068,0.153-0.137,0.153c-0.085,0-0.12-0.067-0.12-0.188
		c0-0.104-0.017-0.344-0.085-0.516c-0.103-0.24-0.257-0.342-1.081-0.445c-0.257-0.033-2.007-0.051-2.178-0.051
		c-0.068,0-0.086,0.051-0.086,0.154v3.961c0,0.104,0,0.154,0.086,0.154c0.188,0,2.178,0,2.521-0.034
		c0.36-0.034,0.583-0.052,0.738-0.206c0.103-0.104,0.171-0.188,0.223-0.188c0.052,0,0.086,0.033,0.086,0.119
		s-0.086,0.326-0.12,0.807c-0.034,0.291-0.068,0.841-0.068,0.943c0,0.119-0.035,0.273-0.137,0.273c-0.069,0-0.103-0.051-0.103-0.137
		c0-0.137,0-0.291-0.069-0.48c-0.051-0.205-0.188-0.377-0.771-0.445c-0.412-0.052-2.024-0.068-2.281-0.068
		c-0.085,0-0.103,0.052-0.103,0.104v1.219c0,0.496-0.017,2.194,0,2.485c0.035,0.979,0.309,1.166,1.801,1.166
		c0.395,0,1.115,0,1.51-0.153c0.394-0.172,0.6-0.429,0.686-1.013c0.035-0.172,0.069-0.223,0.155-0.223
		c0.085,0,0.103,0.12,0.103,0.223c0,0.104-0.12,1.099-0.206,1.406c-0.103,0.378-0.257,0.378-0.84,0.378
		c-1.132,0-2.007-0.034-2.624-0.053c-0.635-0.033-1.029-0.033-1.252-0.033c-0.034,0-0.326,0-0.651,0.018
		c-0.292,0.018-0.635,0.034-0.875,0.034c-0.154,0-0.24-0.034-0.24-0.12c0-0.052,0.034-0.119,0.12-0.119
		c0.138,0,0.326-0.053,0.463-0.068c0.292-0.053,0.326-0.344,0.395-0.772c0.085-0.601,0.085-1.749,0.085-3.155v-2.574H39.841z"/>
	<path fill="#FDF6F2" d="M53.012,89.207c0,1.406,0,2.556,0.069,3.155c0.051,0.429,0.12,0.704,0.583,0.772
		c0.206,0.033,0.549,0.068,0.686,0.068c0.103,0,0.12,0.067,0.12,0.119c0,0.068-0.068,0.12-0.24,0.12
		c-0.823,0-1.784-0.052-1.869-0.052c-0.069,0-1.115,0.052-1.561,0.052c-0.171,0-0.24-0.034-0.24-0.12
		c0-0.052,0.034-0.104,0.12-0.104c0.137,0,0.309-0.034,0.446-0.068c0.309-0.068,0.394-0.359,0.446-0.789
		c0.068-0.602,0.068-1.749,0.068-3.154v-6.123l-2.178,0.033c-0.943,0.018-1.304,0.12-1.527,0.463
		c-0.171,0.258-0.188,0.36-0.24,0.465c-0.035,0.119-0.086,0.137-0.154,0.137c-0.035,0-0.103-0.034-0.103-0.12
		c0-0.153,0.309-1.458,0.326-1.578c0.034-0.085,0.103-0.274,0.154-0.274c0.103,0,0.257,0.121,0.669,0.172
		c0.429,0.052,1.012,0.068,1.184,0.068h5.694c0.498,0,0.84-0.033,1.081-0.068c0.223-0.033,0.36-0.067,0.429-0.067
		c0.069,0,0.069,0.086,0.069,0.171c0,0.446-0.052,1.492-0.052,1.664c0,0.12-0.068,0.188-0.137,0.188
		c-0.068,0-0.103-0.051-0.12-0.258l-0.017-0.154c-0.051-0.444-0.377-0.771-1.818-0.805l-1.887-0.035L53.012,89.207L53.012,89.207z"
		/>
	<path fill="#FDF6F2" d="M64.484,82.208c3.396,0,5.968,2.076,5.968,5.472c0,3.26-2.418,5.952-6.054,5.952
		c-4.133,0-5.9-3.104-5.9-5.729C58.499,85.554,60.316,82.208,64.484,82.208z M64.827,93.031c1.355,0,4.082-0.721,4.082-4.939
		c0-3.498-2.127-5.334-4.511-5.334c-2.521,0-4.339,1.578-4.339,4.752C60.059,90.904,62.1,93.031,64.827,93.031z"/>
	<path fill="#FDF6F2" d="M79.043,86.753c0-0.395,0.274-0.942,0.943-0.942c0.531,0,0.943,0.345,0.943,0.894s-0.377,0.994-0.961,0.994
		C79.317,87.697,79.043,87.184,79.043,86.753z"/>
	<path fill="#FDF6F2" d="M104.373,91.23c0.069,0.617,0.189,1.578,0.926,1.818c0.498,0.154,0.943,0.154,1.115,0.154
		c0.086,0,0.137,0.018,0.137,0.086c0,0.103-0.154,0.153-0.36,0.153c-0.377,0-2.23-0.052-2.864-0.104
		c-0.395-0.033-0.48-0.086-0.48-0.172c0-0.067,0.034-0.102,0.12-0.119c0.086-0.016,0.103-0.309,0.068-0.616l-0.823-8.851h-0.051
		l-4.202,8.92c-0.36,0.754-0.412,0.908-0.566,0.908c-0.12,0-0.206-0.171-0.531-0.789c-0.446-0.84-1.921-3.807-2.007-3.979
		c-0.154-0.309-2.075-4.426-2.264-4.889h-0.068l-0.686,7.959c-0.017,0.273-0.017,0.582-0.017,0.875c0,0.256,0.188,0.479,0.446,0.531
		c0.292,0.067,0.549,0.086,0.652,0.086c0.068,0,0.137,0.033,0.137,0.086c0,0.119-0.103,0.153-0.309,0.153
		c-0.635,0-1.458-0.052-1.595-0.052c-0.154,0-0.978,0.052-1.441,0.052c-0.171,0-0.292-0.034-0.292-0.153
		c0-0.053,0.086-0.086,0.171-0.086c0.138,0,0.257,0,0.515-0.053c0.566-0.104,0.618-0.771,0.686-1.423l1.235-11.185
		c0.017-0.188,0.086-0.309,0.189-0.309s0.171,0.068,0.257,0.258l5.248,10.789l5.042-10.771c0.069-0.154,0.138-0.275,0.257-0.275
		c0.12,0,0.172,0.139,0.206,0.465L104.373,91.23z"/>
	<path fill="#FDF6F2" d="M113.924,82.208c3.396,0,5.969,2.076,5.969,5.472c0,3.26-2.417,5.952-6.054,5.952
		c-4.133,0-5.9-3.104-5.9-5.729C107.938,85.554,109.756,82.208,113.924,82.208z M114.267,93.031c1.355,0,4.083-0.721,4.083-4.939
		c0-3.498-2.126-5.334-4.511-5.334c-2.521,0-4.339,1.578-4.339,4.752C109.499,90.904,111.54,93.031,114.267,93.031z"/>
	<path fill="#FDF6F2" d="M123.477,86.634c0-2.264,0-2.676-0.035-3.139c-0.033-0.498-0.119-0.738-0.616-0.807
		c-0.12-0.018-0.377-0.033-0.515-0.033c-0.053,0-0.121-0.07-0.121-0.121c0-0.086,0.068-0.119,0.24-0.119
		c0.687,0,1.697,0.033,1.783,0.033c0.154,0,1.424-0.033,1.887-0.033c0.961,0,2.023,0.086,2.812,0.635
		c0.378,0.273,1.047,0.978,1.047,1.988c0,1.08-0.445,2.127-1.854,3.328c1.235,1.543,2.281,2.863,3.156,3.772
		c0.807,0.823,1.305,0.96,1.682,1.012c0.291,0.052,0.445,0.052,0.531,0.052s0.137,0.068,0.137,0.121
		c0,0.084-0.086,0.119-0.359,0.119h-0.943c-0.856,0-1.233-0.086-1.611-0.292c-0.651-0.343-1.2-1.046-2.059-2.144
		c-0.635-0.789-1.304-1.732-1.63-2.127c-0.067-0.068-0.103-0.086-0.206-0.086l-1.92-0.035c-0.068,0-0.104,0.035-0.104,0.121v0.344
		c0,1.406,0,2.537,0.068,3.139c0.051,0.428,0.137,0.703,0.601,0.771c0.206,0.033,0.532,0.068,0.669,0.068
		c0.104,0,0.119,0.067,0.119,0.119c0,0.068-0.068,0.12-0.239,0.12c-0.823,0-1.784-0.052-1.853-0.052
		c-0.019,0-1.029,0.052-1.492,0.052c-0.154,0-0.24-0.034-0.24-0.12c0-0.052,0.035-0.119,0.12-0.119c0.138,0,0.325-0.035,0.464-0.068
		c0.291-0.068,0.324-0.344,0.395-0.771c0.086-0.602,0.086-1.75,0.086-3.156V86.634L123.477,86.634z M124.779,87.869
		c0,0.086,0.033,0.137,0.104,0.188c0.223,0.12,0.994,0.224,1.663,0.224c0.36,0,0.771-0.018,1.132-0.258
		c0.516-0.344,0.909-1.115,0.909-2.229c0-1.818-0.995-2.864-2.606-2.864c-0.446,0-0.926,0.051-1.08,0.086
		c-0.069,0.034-0.121,0.086-0.121,0.172V87.869L124.779,87.869z"/>
	<path fill="#FDF6F2" d="M137.812,82.707c0.188-0.479,0.256-0.565,0.358-0.565c0.154,0,0.206,0.206,0.36,0.53
		c0.273,0.617,2.691,6.639,3.619,8.851c0.549,1.306,0.959,1.492,1.285,1.597c0.224,0.067,0.445,0.086,0.602,0.086
		c0.085,0,0.188,0.033,0.188,0.119s-0.172,0.12-0.344,0.12c-0.223,0-1.337,0-2.383-0.034c-0.292-0.018-0.532-0.018-0.532-0.104
		c0-0.068,0.034-0.068,0.103-0.104c0.086-0.035,0.24-0.154,0.139-0.395l-1.354-3.346c-0.035-0.067-0.053-0.084-0.139-0.084h-3.48
		c-0.068,0-0.121,0.033-0.154,0.119l-0.857,2.332C135.085,92.19,135,92.55,135,92.808c0,0.291,0.257,0.395,0.514,0.395h0.137
		c0.121,0,0.156,0.051,0.156,0.121c0,0.084-0.086,0.119-0.225,0.119c-0.359,0-1.184-0.052-1.354-0.052
		c-0.154,0-0.91,0.052-1.526,0.052c-0.188,0-0.291-0.035-0.291-0.119c0-0.07,0.067-0.121,0.137-0.121
		c0.103,0,0.326-0.018,0.445-0.035c0.687-0.084,0.979-0.6,1.271-1.336L137.812,82.707z M139.492,88.777
		c0.068,0,0.068-0.033,0.053-0.102l-1.492-3.998c-0.086-0.223-0.172-0.223-0.258,0l-1.406,3.998c-0.018,0.068,0,0.102,0.051,0.102
		H139.492z M140.83,80.117c0.086,0.154,0,0.205-0.068,0.205c-0.051,0-0.223-0.033-0.514,0c-0.841,0.086-2.041,0.48-2.607,0.721
		c-0.119,0.051-0.223,0.086-0.258,0.086c-0.033,0-0.086-0.035-0.086-0.104c0-0.051,0.035-0.086,0.121-0.137
		c0.617-0.43,2.212-1.389,2.332-1.458c0.291-0.171,0.395-0.224,0.48-0.224c0.051,0,0.086,0.035,0.172,0.154
		C140.521,79.533,140.643,79.773,140.83,80.117z"/>
	<path fill="#FDF6F2" d="M147.277,91.453c0.035,1.201,0.172,1.562,0.584,1.664c0.273,0.068,0.617,0.086,0.755,0.086
		c0.067,0,0.12,0.051,0.12,0.121c0,0.084-0.104,0.119-0.274,0.119c-0.858,0-1.458-0.052-1.595-0.052
		c-0.139,0-0.771,0.052-1.459,0.052c-0.154,0-0.239-0.018-0.239-0.119c0-0.07,0.052-0.121,0.12-0.121
		c0.119,0,0.395-0.018,0.617-0.086c0.377-0.104,0.429-0.498,0.429-1.818v-8.352c0-0.584,0.086-0.738,0.206-0.738
		c0.172,0,0.43,0.293,0.583,0.447c0.239,0.239,2.437,2.571,4.769,4.973c1.491,1.543,3.104,3.275,3.566,3.756l-0.154-7.307
		c-0.018-0.943-0.103-1.269-0.566-1.354c-0.272-0.053-0.616-0.068-0.735-0.068c-0.104,0-0.121-0.086-0.121-0.138
		c0-0.086,0.121-0.103,0.292-0.103c0.688,0,1.406,0.033,1.578,0.033c0.171,0,0.669-0.033,1.286-0.033
		c0.153,0,0.274,0.017,0.274,0.103c0,0.052-0.068,0.138-0.172,0.138c-0.068,0-0.188,0-0.361,0.034
		c-0.495,0.104-0.53,0.396-0.53,1.271l-0.034,8.541c0,0.959-0.018,1.045-0.119,1.045c-0.154,0-0.31-0.119-1.148-0.891
		c-0.154-0.138-2.334-2.281-3.928-3.945c-1.75-1.836-3.447-3.619-3.91-4.133L147.277,91.453z"/>
	<path fill="#FDF6F2" d="M165.559,89.893c0-2.006,1.287-3.345,2.625-4.134c-0.635-0.893-0.842-1.596-0.842-2.366
		c0-1.354,1.391-3.156,3.688-3.156c0.875,0,1.613,0.173,2.076,0.431c0.205,0.119,0.224,0.223,0.224,0.428
		c0,0.516-0.067,1.716-0.12,1.973c-0.052,0.258-0.104,0.292-0.171,0.292c-0.086,0-0.104-0.069-0.104-0.325
		c0-0.447-0.104-1.013-0.531-1.459c-0.377-0.395-0.961-0.754-1.715-0.754c-1.028,0-2.179,0.635-2.179,2.246
		c0,1.338,0.927,2.453,2.71,4.391c0.583,0.635,2.692,2.607,3.241,3.07c0.479-0.652,0.875-1.801,0.875-2.848
		c0-0.258-0.069-0.582-0.326-0.84c-0.223-0.223-0.583-0.274-0.841-0.274c-0.104,0-0.205-0.034-0.205-0.12s0.137-0.119,0.273-0.119
		c0.412,0,1.099,0.018,2.059,0.119c0.258,0.035,0.309,0.172,0.309,0.344c0,1.39-0.942,3.121-1.696,4.047
		c1.132,0.961,1.887,1.425,2.366,1.699c0.55,0.324,1.424,0.668,2.041,0.668c0.154,0,0.24,0.019,0.24,0.121
		c0,0.067-0.139,0.119-0.293,0.119h-1.68c-1.27,0-1.682-0.119-3.568-1.611c-0.395,0.395-1.748,1.853-4.287,1.853
		C166.725,93.684,165.559,91.384,165.559,89.893z M173.568,91.505c-0.961-0.789-2.658-2.418-3.104-2.898
		c-0.446-0.479-1.544-1.697-2.024-2.4c-0.891,0.584-1.543,1.51-1.543,2.881c0,2.145,1.511,3.688,3.431,3.688
		C171.922,92.774,172.984,92.105,173.568,91.505z"/>
	<path fill="#FDF6F2" d="M187.596,91.832c-1.664-1.492-2.076-3.447-2.076-5.078c0-1.147,0.396-3.154,1.922-4.682
		c1.029-1.029,2.59-1.836,5.23-1.836c0.686,0,1.646,0.053,2.486,0.207c0.652,0.119,1.201,0.223,1.75,0.258
		c0.188,0.016,0.223,0.084,0.223,0.188c0,0.137-0.052,0.343-0.086,0.961c-0.033,0.564-0.033,1.509-0.051,1.766
		c-0.018,0.258-0.053,0.36-0.155,0.36c-0.12,0-0.137-0.12-0.137-0.36c0-0.668-0.274-1.371-0.722-1.748
		c-0.601-0.516-1.92-0.979-3.431-0.979c-2.28,0-3.344,0.669-3.944,1.252c-1.252,1.201-1.543,2.727-1.543,4.477
		c0,3.275,2.521,6.277,6.19,6.277c1.287,0,2.3-0.154,2.983-0.857c0.361-0.377,0.584-1.133,0.636-1.44
		c0.035-0.188,0.067-0.257,0.172-0.257c0.086,0,0.12,0.119,0.12,0.257c0,0.12-0.206,1.612-0.378,2.194
		c-0.103,0.326-0.138,0.36-0.445,0.498c-0.687,0.273-1.989,0.396-3.088,0.396C190.682,93.684,188.949,93.048,187.596,91.832z"/>
	<path fill="#FDF6F2" d="M202.686,89.207c0,1.406,0,2.556,0.068,3.155c0.053,0.429,0.104,0.704,0.549,0.772
		c0.225,0.033,0.549,0.068,0.688,0.068c0.086,0,0.119,0.067,0.119,0.119c0,0.068-0.067,0.12-0.239,0.12
		c-0.841,0-1.818-0.052-1.888-0.052c-0.086,0-1.028,0.052-1.491,0.052c-0.154,0-0.24-0.034-0.24-0.12
		c0-0.052,0.035-0.119,0.12-0.119c0.138,0,0.326-0.035,0.464-0.068c0.291-0.068,0.342-0.344,0.396-0.772
		c0.067-0.601,0.084-1.749,0.084-3.155v-2.572c0-2.264,0-2.676-0.033-3.139c-0.034-0.498-0.154-0.721-0.48-0.789
		c-0.172-0.035-0.359-0.051-0.463-0.051c-0.068,0-0.12-0.07-0.12-0.121c0-0.086,0.069-0.119,0.24-0.119
		c0.497,0,1.44,0.033,1.526,0.033c0.067,0,1.047-0.033,1.51-0.033c0.171,0,0.24,0.033,0.24,0.119c0,0.051-0.069,0.121-0.121,0.121
		c-0.104,0-0.205,0-0.377,0.033c-0.412,0.086-0.497,0.291-0.531,0.807c-0.018,0.463-0.018,0.875-0.018,3.139v2.572H202.686z
		 M204.605,80.117c0.086,0.154,0,0.205-0.067,0.205c-0.052,0-0.224-0.033-0.515,0c-0.84,0.086-2.041,0.48-2.607,0.721
		c-0.119,0.051-0.223,0.086-0.257,0.086s-0.085-0.035-0.085-0.104c0-0.051,0.033-0.086,0.119-0.137
		c0.617-0.43,2.213-1.389,2.332-1.458c0.293-0.171,0.395-0.224,0.479-0.224c0.052,0,0.086,0.035,0.172,0.154
		C204.298,79.533,204.418,79.773,204.605,80.117z"/>
	<path fill="#FDF6F2" d="M210.711,82.707c0.189-0.479,0.258-0.565,0.361-0.565c0.154,0,0.205,0.206,0.359,0.53
		c0.273,0.617,2.692,6.639,3.618,8.851c0.55,1.306,0.96,1.492,1.286,1.597c0.223,0.067,0.446,0.086,0.602,0.086
		c0.086,0,0.188,0.033,0.188,0.119s-0.172,0.12-0.343,0.12c-0.224,0-1.339,0-2.386-0.034c-0.291-0.018-0.53-0.018-0.53-0.104
		c0-0.068,0.034-0.068,0.104-0.104c0.084-0.035,0.239-0.154,0.137-0.395l-1.355-3.346c-0.033-0.067-0.051-0.084-0.137-0.084h-3.481
		c-0.069,0-0.12,0.033-0.153,0.119l-0.858,2.332c-0.138,0.36-0.224,0.721-0.224,0.979c0,0.291,0.258,0.395,0.516,0.395h0.138
		c0.119,0,0.154,0.051,0.154,0.121c0,0.084-0.086,0.119-0.224,0.119c-0.36,0-1.184-0.052-1.354-0.052
		c-0.153,0-0.909,0.052-1.526,0.052c-0.188,0-0.291-0.035-0.291-0.119c0-0.07,0.067-0.121,0.137-0.121
		c0.104,0,0.326-0.018,0.447-0.035c0.686-0.084,0.977-0.6,1.269-1.336L210.711,82.707z M212.393,88.777
		c0.068,0,0.068-0.033,0.051-0.102l-1.491-3.998c-0.086-0.223-0.171-0.223-0.257,0l-1.406,3.998c-0.018,0.068,0,0.102,0.052,0.102
		H212.393z"/>
	<path fill="#FDF6F2" d="M218.085,92.449c0-0.396,0.274-0.943,0.942-0.943c0.533,0,0.943,0.343,0.943,0.892s-0.377,0.995-0.96,0.995
		C218.359,93.392,218.085,92.876,218.085,92.449z"/>
</g>
<g>
	<g>
		<path fill="#FFFFFF" d="M77.956,50.044c0.083,3.376,0.494,4.446,1.605,4.776c0.782,0.205,1.688,0.246,2.06,0.246
			c0.205,0,0.328,0.082,0.328,0.247c0,0.247-0.246,0.329-0.74,0.329c-2.348,0-3.994-0.123-4.364-0.123
			c-0.371,0-2.101,0.123-3.952,0.123c-0.412,0-0.659-0.041-0.659-0.329c0-0.165,0.124-0.247,0.329-0.247
			c0.33,0,1.07-0.041,1.688-0.246c1.029-0.289,1.235-1.482,1.235-5.229l0.041-23.59c0-1.606,0.123-2.059,0.453-2.059
			c0.329,0,1.029,0.906,1.44,1.317c0.618,0.7,6.752,7.329,13.093,14.122c4.075,4.364,8.562,9.387,9.881,10.745l-0.453-20.914
			c-0.041-2.676-0.33-3.582-1.605-3.911c-0.742-0.165-1.688-0.206-2.018-0.206c-0.289,0-0.33-0.124-0.33-0.289
			c0-0.247,0.33-0.288,0.824-0.288c1.852,0,3.828,0.124,4.281,0.124c0.453,0,1.812-0.124,3.5-0.124c0.452,0,0.74,0.042,0.74,0.288
			c0,0.165-0.164,0.289-0.453,0.289c-0.205,0-0.493,0-0.987,0.123c-1.358,0.288-1.523,1.194-1.523,3.664l-0.083,24.125
			c0,2.719-0.082,2.924-0.369,2.924c-0.33,0-0.824-0.453-3.006-2.635c-0.453-0.412-6.381-6.464-10.746-11.158
			c-4.775-5.146-9.428-10.333-10.745-11.815L77.956,50.044z"/>
		<path fill="#FFFFFF" d="M159.841,50.332c0.166,1.482,0.453,3.787,2.226,4.364c1.192,0.37,2.264,0.37,2.676,0.37
			c0.205,0,0.33,0.041,0.33,0.207c0,0.246-0.371,0.369-0.865,0.369c-0.906,0-5.354-0.123-6.875-0.246
			c-0.947-0.083-1.154-0.206-1.154-0.412c0-0.164,0.084-0.247,0.289-0.288c0.207-0.042,0.246-0.741,0.164-1.482l-1.977-21.244
			h-0.123l-10.086,21.409c-0.865,1.812-0.988,2.182-1.357,2.182c-0.289,0-0.496-0.412-1.277-1.894
			c-1.069-2.018-4.61-9.14-4.817-9.551c-0.369-0.741-4.979-10.622-5.435-11.734h-0.164l-1.646,19.103
			c-0.041,0.659-0.041,1.4-0.041,2.1c0,0.618,0.453,1.153,1.069,1.277c0.699,0.164,1.316,0.205,1.564,0.205
			c0.164,0,0.328,0.082,0.328,0.207c0,0.287-0.246,0.369-0.74,0.369c-1.522,0-3.5-0.123-3.83-0.123
			c-0.369,0-2.346,0.123-3.457,0.123c-0.412,0-0.701-0.082-0.701-0.369c0-0.125,0.207-0.207,0.412-0.207c0.33,0,0.619,0,1.236-0.123
			c1.357-0.247,1.48-1.853,1.646-3.418l2.963-26.842c0.043-0.453,0.207-0.741,0.455-0.741c0.246,0,0.41,0.165,0.615,0.618
			l12.6,25.896l12.104-25.855c0.166-0.37,0.33-0.659,0.617-0.659s0.412,0.33,0.494,1.112L159.841,50.332z"/>
	</g>
	<polygon fill="#FFFFFF" points="114.933,70.348 114.933,5.674 116.066,5.674 116.066,70.348 	"/>
</g>
<g>
	<path fill="#FFFFFF" d="M61.46,104.99c0.099-0.252,0.135-0.297,0.189-0.297c0.081,0,0.108,0.107,0.189,0.279
		c0.144,0.324,1.414,3.484,1.899,4.645c0.288,0.686,0.504,0.783,0.675,0.838c0.117,0.037,0.234,0.045,0.315,0.045
		c0.045,0,0.099,0.019,0.099,0.062s-0.09,0.064-0.18,0.064c-0.117,0-0.702,0-1.251-0.021c-0.153-0.008-0.279-0.008-0.279-0.054
		c0-0.036,0.018-0.036,0.054-0.055c0.045-0.018,0.126-0.08,0.072-0.207l-0.711-1.756c-0.018-0.035-0.027-0.045-0.072-0.045h-1.828
		c-0.036,0-0.063,0.02-0.081,0.064l-0.45,1.223c-0.072,0.189-0.117,0.379-0.117,0.514c0,0.154,0.135,0.207,0.27,0.207h0.072
		c0.063,0,0.081,0.027,0.081,0.062c0,0.045-0.045,0.064-0.117,0.064c-0.189,0-0.622-0.027-0.711-0.027
		c-0.081,0-0.477,0.027-0.801,0.027c-0.099,0-0.153-0.021-0.153-0.064c0-0.035,0.036-0.062,0.072-0.062
		c0.054,0,0.171-0.008,0.234-0.018c0.36-0.045,0.513-0.314,0.666-0.703L61.46,104.99z M62.342,108.177
		c0.036,0,0.036-0.018,0.027-0.055l-0.783-2.098c-0.045-0.117-0.09-0.117-0.135,0l-0.738,2.098c-0.009,0.037,0,0.055,0.027,0.055
		H62.342z"/>
	<path fill="#FFFFFF" d="M74.87,107.052c0-1.188,0-1.403-0.018-1.646c-0.018-0.261-0.063-0.404-0.324-0.441
		c-0.063-0.008-0.198-0.019-0.27-0.019c-0.027,0-0.063-0.019-0.063-0.045c0-0.045,0.036-0.062,0.126-0.062
		c0.36,0,0.874,0.018,0.918,0.018c0.189,0,0.558-0.018,0.927-0.018c1.323,0,1.666,0.766,1.666,1.17c0,0.604-0.396,0.982-0.801,1.342
		c0.603,0.18,1.396,0.729,1.396,1.594c0,0.855-0.639,1.701-1.99,1.701c-0.144,0-0.432-0.01-0.684-0.027
		c-0.252-0.01-0.478-0.018-0.513-0.018c-0.018,0-0.162,0.008-0.324,0.008c-0.162,0.01-0.351,0.02-0.477,0.02
		c-0.081,0-0.126-0.02-0.126-0.063c0-0.024,0.018-0.045,0.063-0.045c0.072,0,0.171-0.024,0.243-0.035
		c0.153-0.026,0.171-0.196,0.207-0.424c0.045-0.313,0.045-0.918,0.045-1.655L74.87,107.052L74.87,107.052z M75.554,107.214
		c0,0.054,0.018,0.072,0.054,0.08c0.045,0.011,0.189,0.037,0.486,0.037c0.441,0,0.612-0.02,0.774-0.199
		c0.171-0.188,0.306-0.448,0.306-0.817c0-0.586-0.324-1.233-1.116-1.233c-0.09,0-0.279,0.01-0.405,0.037
		c-0.072,0.018-0.099,0.034-0.099,0.08V107.214z M75.554,108.061c0,0.595,0,1.513,0.009,1.629c0.027,0.369,0.027,0.459,0.271,0.576
		c0.216,0.101,0.549,0.108,0.693,0.108c0.522,0,1.162-0.199,1.162-1.18c0-0.342-0.135-1-0.756-1.396
		c-0.27-0.17-0.522-0.162-0.711-0.196c-0.099-0.019-0.495-0.019-0.621-0.019c-0.027,0-0.045,0.019-0.045,0.053v0.425H75.554z"/>
	<path fill="#FFFFFF" d="M91.638,104.73c1.782,0,3.133,1.088,3.133,2.871c0,1.711-1.27,3.123-3.178,3.123
		c-2.17,0-3.097-1.629-3.097-3.006C88.496,106.484,89.45,104.73,91.638,104.73z M91.817,110.41c0.711,0,2.143-0.379,2.143-2.592
		c0-1.838-1.117-2.801-2.368-2.801c-1.324,0-2.278,0.828-2.278,2.494C89.315,109.294,90.386,110.41,91.817,110.41z"/>
	<path fill="#FFFFFF" d="M109.395,108.671c0-0.621-0.018-0.711-0.342-0.772c-0.063-0.01-0.198-0.019-0.27-0.019
		c-0.027,0-0.063-0.037-0.063-0.062c0-0.055,0.036-0.063,0.126-0.063c0.36,0,0.892,0.02,0.937,0.02c0.036,0,0.531-0.02,0.774-0.02
		c0.09,0,0.126,0.01,0.126,0.063c0,0.024-0.036,0.062-0.063,0.062c-0.054,0-0.108,0-0.198,0.019
		c-0.216,0.037-0.279,0.151-0.297,0.425c-0.009,0.241-0.009,0.467-0.009,0.791v0.854c0,0.353-0.009,0.361-0.108,0.414
		c-0.504,0.263-1.225,0.343-1.684,0.343c-0.603,0-1.729-0.069-2.611-0.817c-0.486-0.404-0.945-1.226-0.945-2.181
		c0-1.224,0.621-2.088,1.323-2.513c0.711-0.432,1.503-0.483,2.107-0.483c0.504,0,1.062,0.09,1.215,0.125
		c0.162,0.037,0.441,0.082,0.639,0.082c0.081,0,0.099,0.035,0.099,0.069c0,0.109-0.045,0.316-0.045,1.082
		c0,0.125-0.036,0.162-0.09,0.162c-0.045,0-0.054-0.045-0.054-0.117c-0.009-0.1-0.054-0.323-0.18-0.504
		c-0.198-0.289-0.801-0.596-1.828-0.596c-0.477,0-1.053,0.037-1.657,0.496c-0.459,0.352-0.783,1.035-0.783,1.926
		c0,1.08,0.559,1.855,0.837,2.115c0.63,0.586,1.296,0.803,2.026,0.803c0.279,0,0.648-0.026,0.855-0.145
		c0.099-0.055,0.162-0.09,0.162-0.234L109.395,108.671L109.395,108.671z"/>
	<path fill="#FFFFFF" d="M122.704,104.99c0.101-0.252,0.136-0.297,0.188-0.297c0.082,0,0.108,0.107,0.189,0.279
		c0.145,0.324,1.413,3.484,1.898,4.645c0.289,0.686,0.506,0.783,0.676,0.838c0.117,0.037,0.234,0.045,0.314,0.045
		c0.045,0,0.1,0.019,0.1,0.062s-0.09,0.064-0.18,0.064c-0.117,0-0.703,0-1.252-0.021c-0.152-0.008-0.279-0.008-0.279-0.054
		c0-0.036,0.02-0.036,0.055-0.055c0.045-0.018,0.127-0.08,0.072-0.207l-0.711-1.756c-0.019-0.035-0.027-0.045-0.072-0.045h-1.828
		c-0.035,0-0.062,0.02-0.08,0.064l-0.451,1.223c-0.07,0.189-0.115,0.379-0.115,0.514c0,0.154,0.135,0.207,0.271,0.207h0.071
		c0.062,0,0.08,0.027,0.08,0.062c0,0.045-0.045,0.064-0.116,0.064c-0.188,0-0.621-0.027-0.711-0.027
		c-0.081,0-0.478,0.027-0.802,0.027c-0.1,0-0.152-0.021-0.152-0.064c0-0.035,0.036-0.062,0.07-0.062
		c0.056,0,0.172-0.008,0.234-0.018c0.36-0.045,0.514-0.314,0.666-0.703L122.704,104.99z M123.587,108.177
		c0.036,0,0.036-0.018,0.026-0.055l-0.782-2.098c-0.045-0.117-0.09-0.117-0.136,0l-0.737,2.098c-0.01,0.037,0,0.055,0.026,0.055
		H123.587z"/>
	<path fill="#FFFFFF" d="M136.113,107.052c0-1.188,0-1.403-0.018-1.646c-0.018-0.261-0.062-0.388-0.324-0.423
		c-0.062-0.01-0.196-0.021-0.27-0.021c-0.027,0-0.062-0.035-0.062-0.062c0-0.045,0.035-0.062,0.125-0.062
		c0.36,0,0.873,0.018,0.918,0.018c0.09,0,0.596-0.018,1.062-0.018c0.793,0,2.242-0.072,3.178,0.873
		c0.396,0.396,0.774,1.035,0.774,1.945c0,0.963-0.414,1.7-0.854,2.149c-0.343,0.353-1.054,0.883-2.404,0.883
		c-0.342,0-0.766-0.026-1.106-0.045c-0.342-0.026-0.612-0.045-0.647-0.045c-0.019,0-0.162,0.008-0.324,0.008
		c-0.162,0.011-0.352,0.021-0.477,0.021c-0.082,0-0.127-0.021-0.127-0.064c0-0.025,0.02-0.062,0.063-0.062
		c0.071,0,0.17-0.018,0.241-0.035c0.154-0.036,0.173-0.18,0.207-0.405c0.045-0.313,0.045-0.918,0.045-1.655V107.052L136.113,107.052
		z M136.835,107.88c0,0.812,0,1.521,0.009,1.666c0.01,0.188,0.027,0.468,0.092,0.55c0.098,0.146,0.377,0.305,1.312,0.305
		c0.729,0,1.378-0.241,1.854-0.69c0.414-0.39,0.621-1.117,0.621-1.82c0-0.971-0.423-1.592-0.746-1.916
		c-0.748-0.758-1.621-0.855-2.565-0.855c-0.153,0-0.405,0.027-0.478,0.053c-0.072,0.027-0.1,0.064-0.1,0.154L136.835,107.88
		L136.835,107.88z"/>
	<path fill="#FFFFFF" d="M154.639,104.73c1.78,0,3.133,1.088,3.133,2.871c0,1.711-1.271,3.123-3.179,3.123
		c-2.17,0-3.098-1.629-3.098-3.006C151.495,106.484,152.449,104.73,154.639,104.73z M154.816,110.41
		c0.711,0,2.144-0.379,2.144-2.592c0-1.838-1.117-2.801-2.367-2.801c-1.323,0-2.278,0.828-2.278,2.494
		C152.314,109.294,153.387,110.41,154.816,110.41z"/>
	<path fill="#FFFFFF" d="M168.001,110.518c-0.106-0.054-0.117-0.08-0.117-0.287c0-0.379,0.036-0.685,0.046-0.812
		c0-0.08,0.019-0.125,0.062-0.125s0.072,0.025,0.072,0.09c0,0.062,0,0.171,0.025,0.279c0.127,0.558,0.721,0.756,1.252,0.756
		c0.783,0,1.188-0.44,1.188-1.018c0-0.549-0.297-0.811-0.997-1.332l-0.361-0.271c-0.854-0.639-1.134-1.106-1.134-1.639
		c0-0.898,0.712-1.438,1.756-1.438c0.314,0,0.63,0.045,0.818,0.09c0.152,0.035,0.217,0.035,0.279,0.035s0.08,0.01,0.08,0.055
		c0,0.037-0.035,0.289-0.035,0.812c0,0.117-0.01,0.172-0.062,0.172s-0.062-0.037-0.072-0.1c-0.009-0.091-0.07-0.298-0.115-0.38
		c-0.056-0.09-0.315-0.377-1.027-0.377c-0.576,0-1.053,0.287-1.053,0.828c0,0.485,0.242,0.767,1.025,1.295l0.227,0.154
		c0.963,0.655,1.295,1.188,1.295,1.846c0,0.449-0.17,0.937-0.737,1.306c-0.333,0.217-0.829,0.27-1.261,0.27
		C168.784,110.725,168.325,110.671,168.001,110.518z"/>
</g>
</svg>
